<mxfile host="Electron" agent="Mozilla/5.0 (X11; Linux x86_64) AppleWebKit/537.36 (KHTML, like Gecko) draw.io/24.7.5 Chrome/126.0.6478.183 Electron/31.3.0 Safari/537.36" version="24.7.5" pages="2">
  <diagram name="Page-1" id="g-xEHUVCet-0wt9xiEn2">
    <mxGraphModel dx="926" dy="475" grid="1" gridSize="10" guides="0" tooltips="1" connect="1" arrows="1" fold="1" page="1" pageScale="1" pageWidth="4681" pageHeight="3300" math="0" shadow="0">
      <root>
        <mxCell id="0" />
        <mxCell id="1" parent="0" />
        <mxCell id="gq9RI1n04VUrvzgiDH-V-17" style="rounded=0;orthogonalLoop=1;jettySize=auto;html=1;exitX=0.5;exitY=1;exitDx=0;exitDy=0;entryX=0.5;entryY=0;entryDx=0;entryDy=0;" parent="1" source="gq9RI1n04VUrvzgiDH-V-1" target="gq9RI1n04VUrvzgiDH-V-10" edge="1">
          <mxGeometry relative="1" as="geometry" />
        </mxCell>
        <mxCell id="gq9RI1n04VUrvzgiDH-V-1" value="" style="rounded=0;whiteSpace=wrap;html=1;" parent="1" vertex="1">
          <mxGeometry x="1120" y="560" width="40" height="40" as="geometry" />
        </mxCell>
        <mxCell id="gq9RI1n04VUrvzgiDH-V-18" style="rounded=0;orthogonalLoop=1;jettySize=auto;html=1;exitX=0.5;exitY=1;exitDx=0;exitDy=0;entryX=0.5;entryY=0;entryDx=0;entryDy=0;" parent="1" source="gq9RI1n04VUrvzgiDH-V-2" target="gq9RI1n04VUrvzgiDH-V-9" edge="1">
          <mxGeometry relative="1" as="geometry" />
        </mxCell>
        <mxCell id="gq9RI1n04VUrvzgiDH-V-2" value="" style="rounded=0;whiteSpace=wrap;html=1;" parent="1" vertex="1">
          <mxGeometry x="1160" y="560" width="40" height="40" as="geometry" />
        </mxCell>
        <mxCell id="gq9RI1n04VUrvzgiDH-V-19" style="rounded=0;orthogonalLoop=1;jettySize=auto;html=1;exitX=0.5;exitY=1;exitDx=0;exitDy=0;entryX=0.5;entryY=0;entryDx=0;entryDy=0;" parent="1" source="gq9RI1n04VUrvzgiDH-V-3" target="gq9RI1n04VUrvzgiDH-V-12" edge="1">
          <mxGeometry relative="1" as="geometry" />
        </mxCell>
        <mxCell id="gq9RI1n04VUrvzgiDH-V-3" value="" style="rounded=0;whiteSpace=wrap;html=1;" parent="1" vertex="1">
          <mxGeometry x="1200" y="560" width="40" height="40" as="geometry" />
        </mxCell>
        <mxCell id="gq9RI1n04VUrvzgiDH-V-20" style="rounded=0;orthogonalLoop=1;jettySize=auto;html=1;exitX=0.5;exitY=1;exitDx=0;exitDy=0;entryX=0.5;entryY=0;entryDx=0;entryDy=0;" parent="1" source="gq9RI1n04VUrvzgiDH-V-4" target="gq9RI1n04VUrvzgiDH-V-11" edge="1">
          <mxGeometry relative="1" as="geometry" />
        </mxCell>
        <mxCell id="gq9RI1n04VUrvzgiDH-V-4" value="" style="rounded=0;whiteSpace=wrap;html=1;" parent="1" vertex="1">
          <mxGeometry x="1240" y="560" width="40" height="40" as="geometry" />
        </mxCell>
        <mxCell id="gq9RI1n04VUrvzgiDH-V-22" style="rounded=0;orthogonalLoop=1;jettySize=auto;html=1;exitX=0.5;exitY=1;exitDx=0;exitDy=0;entryX=0.5;entryY=0;entryDx=0;entryDy=0;" parent="1" source="gq9RI1n04VUrvzgiDH-V-5" target="gq9RI1n04VUrvzgiDH-V-14" edge="1">
          <mxGeometry relative="1" as="geometry" />
        </mxCell>
        <mxCell id="gq9RI1n04VUrvzgiDH-V-5" value="" style="rounded=0;whiteSpace=wrap;html=1;" parent="1" vertex="1">
          <mxGeometry x="1280" y="560" width="40" height="40" as="geometry" />
        </mxCell>
        <mxCell id="gq9RI1n04VUrvzgiDH-V-21" style="rounded=0;orthogonalLoop=1;jettySize=auto;html=1;exitX=0.5;exitY=1;exitDx=0;exitDy=0;entryX=0.5;entryY=0;entryDx=0;entryDy=0;" parent="1" source="gq9RI1n04VUrvzgiDH-V-6" target="gq9RI1n04VUrvzgiDH-V-13" edge="1">
          <mxGeometry relative="1" as="geometry" />
        </mxCell>
        <mxCell id="gq9RI1n04VUrvzgiDH-V-6" value="" style="rounded=0;whiteSpace=wrap;html=1;" parent="1" vertex="1">
          <mxGeometry x="1320" y="560" width="40" height="40" as="geometry" />
        </mxCell>
        <mxCell id="gq9RI1n04VUrvzgiDH-V-23" style="rounded=0;orthogonalLoop=1;jettySize=auto;html=1;exitX=0.5;exitY=1;exitDx=0;exitDy=0;entryX=0.5;entryY=0;entryDx=0;entryDy=0;" parent="1" source="gq9RI1n04VUrvzgiDH-V-7" target="gq9RI1n04VUrvzgiDH-V-16" edge="1">
          <mxGeometry relative="1" as="geometry" />
        </mxCell>
        <mxCell id="gq9RI1n04VUrvzgiDH-V-7" value="" style="rounded=0;whiteSpace=wrap;html=1;" parent="1" vertex="1">
          <mxGeometry x="1360" y="560" width="40" height="40" as="geometry" />
        </mxCell>
        <mxCell id="gq9RI1n04VUrvzgiDH-V-24" style="rounded=0;orthogonalLoop=1;jettySize=auto;html=1;exitX=0.5;exitY=1;exitDx=0;exitDy=0;entryX=0.5;entryY=0;entryDx=0;entryDy=0;" parent="1" source="gq9RI1n04VUrvzgiDH-V-8" target="gq9RI1n04VUrvzgiDH-V-15" edge="1">
          <mxGeometry relative="1" as="geometry" />
        </mxCell>
        <mxCell id="gq9RI1n04VUrvzgiDH-V-8" value="" style="rounded=0;whiteSpace=wrap;html=1;" parent="1" vertex="1">
          <mxGeometry x="1400" y="560" width="40" height="40" as="geometry" />
        </mxCell>
        <mxCell id="gq9RI1n04VUrvzgiDH-V-9" value="" style="rounded=0;whiteSpace=wrap;html=1;" parent="1" vertex="1">
          <mxGeometry x="1120" y="680" width="40" height="40" as="geometry" />
        </mxCell>
        <mxCell id="gq9RI1n04VUrvzgiDH-V-10" value="" style="rounded=0;whiteSpace=wrap;html=1;" parent="1" vertex="1">
          <mxGeometry x="1160" y="680" width="40" height="40" as="geometry" />
        </mxCell>
        <mxCell id="gq9RI1n04VUrvzgiDH-V-11" value="" style="rounded=0;whiteSpace=wrap;html=1;" parent="1" vertex="1">
          <mxGeometry x="1200" y="680" width="40" height="40" as="geometry" />
        </mxCell>
        <mxCell id="gq9RI1n04VUrvzgiDH-V-12" value="" style="rounded=0;whiteSpace=wrap;html=1;" parent="1" vertex="1">
          <mxGeometry x="1240" y="680" width="40" height="40" as="geometry" />
        </mxCell>
        <mxCell id="gq9RI1n04VUrvzgiDH-V-13" value="" style="rounded=0;whiteSpace=wrap;html=1;" parent="1" vertex="1">
          <mxGeometry x="1280" y="680" width="40" height="40" as="geometry" />
        </mxCell>
        <mxCell id="gq9RI1n04VUrvzgiDH-V-14" value="" style="rounded=0;whiteSpace=wrap;html=1;" parent="1" vertex="1">
          <mxGeometry x="1320" y="680" width="40" height="40" as="geometry" />
        </mxCell>
        <mxCell id="gq9RI1n04VUrvzgiDH-V-15" value="" style="rounded=0;whiteSpace=wrap;html=1;" parent="1" vertex="1">
          <mxGeometry x="1360" y="680" width="40" height="40" as="geometry" />
        </mxCell>
        <mxCell id="gq9RI1n04VUrvzgiDH-V-16" value="" style="rounded=0;whiteSpace=wrap;html=1;" parent="1" vertex="1">
          <mxGeometry x="1400" y="680" width="40" height="40" as="geometry" />
        </mxCell>
        <mxCell id="gq9RI1n04VUrvzgiDH-V-49" style="rounded=0;orthogonalLoop=1;jettySize=auto;html=1;exitX=0.5;exitY=1;exitDx=0;exitDy=0;entryX=0.5;entryY=0;entryDx=0;entryDy=0;" parent="1" source="gq9RI1n04VUrvzgiDH-V-26" target="gq9RI1n04VUrvzgiDH-V-43" edge="1">
          <mxGeometry relative="1" as="geometry" />
        </mxCell>
        <mxCell id="gq9RI1n04VUrvzgiDH-V-26" value="" style="rounded=0;whiteSpace=wrap;html=1;" parent="1" vertex="1">
          <mxGeometry x="1480" y="560" width="40" height="40" as="geometry" />
        </mxCell>
        <mxCell id="gq9RI1n04VUrvzgiDH-V-50" style="rounded=0;orthogonalLoop=1;jettySize=auto;html=1;exitX=0.5;exitY=1;exitDx=0;exitDy=0;entryX=0.5;entryY=0;entryDx=0;entryDy=0;" parent="1" source="gq9RI1n04VUrvzgiDH-V-28" target="gq9RI1n04VUrvzgiDH-V-44" edge="1">
          <mxGeometry relative="1" as="geometry" />
        </mxCell>
        <mxCell id="gq9RI1n04VUrvzgiDH-V-28" value="" style="rounded=0;whiteSpace=wrap;html=1;" parent="1" vertex="1">
          <mxGeometry x="1520" y="560" width="40" height="40" as="geometry" />
        </mxCell>
        <mxCell id="gq9RI1n04VUrvzgiDH-V-51" style="rounded=0;orthogonalLoop=1;jettySize=auto;html=1;exitX=0.5;exitY=1;exitDx=0;exitDy=0;entryX=0.5;entryY=0;entryDx=0;entryDy=0;" parent="1" source="gq9RI1n04VUrvzgiDH-V-30" target="gq9RI1n04VUrvzgiDH-V-41" edge="1">
          <mxGeometry relative="1" as="geometry" />
        </mxCell>
        <mxCell id="gq9RI1n04VUrvzgiDH-V-30" value="" style="rounded=0;whiteSpace=wrap;html=1;" parent="1" vertex="1">
          <mxGeometry x="1560" y="560" width="40" height="40" as="geometry" />
        </mxCell>
        <mxCell id="gq9RI1n04VUrvzgiDH-V-52" style="rounded=0;orthogonalLoop=1;jettySize=auto;html=1;exitX=0.5;exitY=1;exitDx=0;exitDy=0;entryX=0.5;entryY=0;entryDx=0;entryDy=0;" parent="1" source="gq9RI1n04VUrvzgiDH-V-32" target="gq9RI1n04VUrvzgiDH-V-42" edge="1">
          <mxGeometry relative="1" as="geometry" />
        </mxCell>
        <mxCell id="gq9RI1n04VUrvzgiDH-V-32" value="" style="rounded=0;whiteSpace=wrap;html=1;" parent="1" vertex="1">
          <mxGeometry x="1600" y="560" width="40" height="40" as="geometry" />
        </mxCell>
        <mxCell id="gq9RI1n04VUrvzgiDH-V-53" style="rounded=0;orthogonalLoop=1;jettySize=auto;html=1;exitX=0.5;exitY=1;exitDx=0;exitDy=0;entryX=0.5;entryY=0;entryDx=0;entryDy=0;" parent="1" source="gq9RI1n04VUrvzgiDH-V-34" target="gq9RI1n04VUrvzgiDH-V-47" edge="1">
          <mxGeometry relative="1" as="geometry" />
        </mxCell>
        <mxCell id="gq9RI1n04VUrvzgiDH-V-34" value="" style="rounded=0;whiteSpace=wrap;html=1;" parent="1" vertex="1">
          <mxGeometry x="1640" y="560" width="40" height="40" as="geometry" />
        </mxCell>
        <mxCell id="gq9RI1n04VUrvzgiDH-V-54" style="rounded=0;orthogonalLoop=1;jettySize=auto;html=1;exitX=0.5;exitY=1;exitDx=0;exitDy=0;entryX=0.5;entryY=0;entryDx=0;entryDy=0;" parent="1" source="gq9RI1n04VUrvzgiDH-V-36" target="gq9RI1n04VUrvzgiDH-V-48" edge="1">
          <mxGeometry relative="1" as="geometry" />
        </mxCell>
        <mxCell id="gq9RI1n04VUrvzgiDH-V-36" value="" style="rounded=0;whiteSpace=wrap;html=1;" parent="1" vertex="1">
          <mxGeometry x="1680" y="560" width="40" height="40" as="geometry" />
        </mxCell>
        <mxCell id="gq9RI1n04VUrvzgiDH-V-55" style="rounded=0;orthogonalLoop=1;jettySize=auto;html=1;exitX=0.5;exitY=1;exitDx=0;exitDy=0;entryX=0.5;entryY=0;entryDx=0;entryDy=0;" parent="1" source="gq9RI1n04VUrvzgiDH-V-38" target="gq9RI1n04VUrvzgiDH-V-45" edge="1">
          <mxGeometry relative="1" as="geometry" />
        </mxCell>
        <mxCell id="gq9RI1n04VUrvzgiDH-V-38" value="" style="rounded=0;whiteSpace=wrap;html=1;" parent="1" vertex="1">
          <mxGeometry x="1720" y="560" width="40" height="40" as="geometry" />
        </mxCell>
        <mxCell id="gq9RI1n04VUrvzgiDH-V-56" style="rounded=0;orthogonalLoop=1;jettySize=auto;html=1;exitX=0.5;exitY=1;exitDx=0;exitDy=0;entryX=0.5;entryY=0;entryDx=0;entryDy=0;" parent="1" source="gq9RI1n04VUrvzgiDH-V-40" target="gq9RI1n04VUrvzgiDH-V-46" edge="1">
          <mxGeometry relative="1" as="geometry" />
        </mxCell>
        <mxCell id="gq9RI1n04VUrvzgiDH-V-40" value="" style="rounded=0;whiteSpace=wrap;html=1;" parent="1" vertex="1">
          <mxGeometry x="1760" y="560" width="40" height="40" as="geometry" />
        </mxCell>
        <mxCell id="gq9RI1n04VUrvzgiDH-V-41" value="" style="rounded=0;whiteSpace=wrap;html=1;" parent="1" vertex="1">
          <mxGeometry x="1480" y="680" width="40" height="40" as="geometry" />
        </mxCell>
        <mxCell id="gq9RI1n04VUrvzgiDH-V-42" value="" style="rounded=0;whiteSpace=wrap;html=1;" parent="1" vertex="1">
          <mxGeometry x="1520" y="680" width="40" height="40" as="geometry" />
        </mxCell>
        <mxCell id="gq9RI1n04VUrvzgiDH-V-43" value="" style="rounded=0;whiteSpace=wrap;html=1;" parent="1" vertex="1">
          <mxGeometry x="1560" y="680" width="40" height="40" as="geometry" />
        </mxCell>
        <mxCell id="gq9RI1n04VUrvzgiDH-V-44" value="" style="rounded=0;whiteSpace=wrap;html=1;" parent="1" vertex="1">
          <mxGeometry x="1600" y="680" width="40" height="40" as="geometry" />
        </mxCell>
        <mxCell id="gq9RI1n04VUrvzgiDH-V-45" value="" style="rounded=0;whiteSpace=wrap;html=1;" parent="1" vertex="1">
          <mxGeometry x="1640" y="680" width="40" height="40" as="geometry" />
        </mxCell>
        <mxCell id="gq9RI1n04VUrvzgiDH-V-46" value="" style="rounded=0;whiteSpace=wrap;html=1;" parent="1" vertex="1">
          <mxGeometry x="1680" y="680" width="40" height="40" as="geometry" />
        </mxCell>
        <mxCell id="gq9RI1n04VUrvzgiDH-V-47" value="" style="rounded=0;whiteSpace=wrap;html=1;" parent="1" vertex="1">
          <mxGeometry x="1720" y="680" width="40" height="40" as="geometry" />
        </mxCell>
        <mxCell id="gq9RI1n04VUrvzgiDH-V-48" value="" style="rounded=0;whiteSpace=wrap;html=1;" parent="1" vertex="1">
          <mxGeometry x="1760" y="680" width="40" height="40" as="geometry" />
        </mxCell>
        <mxCell id="gq9RI1n04VUrvzgiDH-V-84" style="rounded=0;orthogonalLoop=1;jettySize=auto;html=1;exitX=0.5;exitY=1;exitDx=0;exitDy=0;entryX=0.5;entryY=0;entryDx=0;entryDy=0;" parent="1" source="gq9RI1n04VUrvzgiDH-V-58" target="gq9RI1n04VUrvzgiDH-V-77" edge="1">
          <mxGeometry relative="1" as="geometry" />
        </mxCell>
        <mxCell id="gq9RI1n04VUrvzgiDH-V-58" value="" style="rounded=0;whiteSpace=wrap;html=1;" parent="1" vertex="1">
          <mxGeometry x="1840" y="560" width="40" height="40" as="geometry" />
        </mxCell>
        <mxCell id="gq9RI1n04VUrvzgiDH-V-83" style="rounded=0;orthogonalLoop=1;jettySize=auto;html=1;exitX=0.5;exitY=1;exitDx=0;exitDy=0;entryX=0.5;entryY=0;entryDx=0;entryDy=0;" parent="1" source="gq9RI1n04VUrvzgiDH-V-60" target="gq9RI1n04VUrvzgiDH-V-78" edge="1">
          <mxGeometry relative="1" as="geometry" />
        </mxCell>
        <mxCell id="gq9RI1n04VUrvzgiDH-V-60" value="" style="rounded=0;whiteSpace=wrap;html=1;" parent="1" vertex="1">
          <mxGeometry x="1880" y="560" width="40" height="40" as="geometry" />
        </mxCell>
        <mxCell id="gq9RI1n04VUrvzgiDH-V-82" style="rounded=0;orthogonalLoop=1;jettySize=auto;html=1;exitX=0.5;exitY=1;exitDx=0;exitDy=0;entryX=0.5;entryY=0;entryDx=0;entryDy=0;" parent="1" source="gq9RI1n04VUrvzgiDH-V-62" target="gq9RI1n04VUrvzgiDH-V-79" edge="1">
          <mxGeometry relative="1" as="geometry" />
        </mxCell>
        <mxCell id="gq9RI1n04VUrvzgiDH-V-62" value="" style="rounded=0;whiteSpace=wrap;html=1;" parent="1" vertex="1">
          <mxGeometry x="1920" y="560" width="40" height="40" as="geometry" />
        </mxCell>
        <mxCell id="gq9RI1n04VUrvzgiDH-V-81" style="rounded=0;orthogonalLoop=1;jettySize=auto;html=1;exitX=0.5;exitY=1;exitDx=0;exitDy=0;entryX=0.5;entryY=0;entryDx=0;entryDy=0;" parent="1" source="gq9RI1n04VUrvzgiDH-V-64" target="gq9RI1n04VUrvzgiDH-V-80" edge="1">
          <mxGeometry relative="1" as="geometry" />
        </mxCell>
        <mxCell id="gq9RI1n04VUrvzgiDH-V-64" value="" style="rounded=0;whiteSpace=wrap;html=1;" parent="1" vertex="1">
          <mxGeometry x="1960" y="560" width="40" height="40" as="geometry" />
        </mxCell>
        <mxCell id="gq9RI1n04VUrvzgiDH-V-85" style="rounded=0;orthogonalLoop=1;jettySize=auto;html=1;exitX=0.5;exitY=1;exitDx=0;exitDy=0;entryX=0.5;entryY=0;entryDx=0;entryDy=0;" parent="1" source="gq9RI1n04VUrvzgiDH-V-66" target="gq9RI1n04VUrvzgiDH-V-73" edge="1">
          <mxGeometry relative="1" as="geometry" />
        </mxCell>
        <mxCell id="gq9RI1n04VUrvzgiDH-V-66" value="" style="rounded=0;whiteSpace=wrap;html=1;" parent="1" vertex="1">
          <mxGeometry x="2000" y="560" width="40" height="40" as="geometry" />
        </mxCell>
        <mxCell id="gq9RI1n04VUrvzgiDH-V-86" style="rounded=0;orthogonalLoop=1;jettySize=auto;html=1;exitX=0.5;exitY=1;exitDx=0;exitDy=0;entryX=0.5;entryY=0;entryDx=0;entryDy=0;" parent="1" source="gq9RI1n04VUrvzgiDH-V-68" target="gq9RI1n04VUrvzgiDH-V-74" edge="1">
          <mxGeometry relative="1" as="geometry" />
        </mxCell>
        <mxCell id="gq9RI1n04VUrvzgiDH-V-68" value="" style="rounded=0;whiteSpace=wrap;html=1;" parent="1" vertex="1">
          <mxGeometry x="2040" y="560" width="40" height="40" as="geometry" />
        </mxCell>
        <mxCell id="gq9RI1n04VUrvzgiDH-V-87" style="rounded=0;orthogonalLoop=1;jettySize=auto;html=1;exitX=0.5;exitY=1;exitDx=0;exitDy=0;entryX=0.5;entryY=0;entryDx=0;entryDy=0;" parent="1" source="gq9RI1n04VUrvzgiDH-V-70" target="gq9RI1n04VUrvzgiDH-V-75" edge="1">
          <mxGeometry relative="1" as="geometry" />
        </mxCell>
        <mxCell id="gq9RI1n04VUrvzgiDH-V-70" value="" style="rounded=0;whiteSpace=wrap;html=1;" parent="1" vertex="1">
          <mxGeometry x="2080" y="560" width="40" height="40" as="geometry" />
        </mxCell>
        <mxCell id="gq9RI1n04VUrvzgiDH-V-88" style="rounded=0;orthogonalLoop=1;jettySize=auto;html=1;exitX=0.5;exitY=1;exitDx=0;exitDy=0;entryX=0.5;entryY=0;entryDx=0;entryDy=0;" parent="1" source="gq9RI1n04VUrvzgiDH-V-72" target="gq9RI1n04VUrvzgiDH-V-76" edge="1">
          <mxGeometry relative="1" as="geometry" />
        </mxCell>
        <mxCell id="gq9RI1n04VUrvzgiDH-V-72" value="" style="rounded=0;whiteSpace=wrap;html=1;" parent="1" vertex="1">
          <mxGeometry x="2120" y="560" width="40" height="40" as="geometry" />
        </mxCell>
        <mxCell id="gq9RI1n04VUrvzgiDH-V-73" value="" style="rounded=0;whiteSpace=wrap;html=1;" parent="1" vertex="1">
          <mxGeometry x="1840" y="680" width="40" height="40" as="geometry" />
        </mxCell>
        <mxCell id="gq9RI1n04VUrvzgiDH-V-74" value="" style="rounded=0;whiteSpace=wrap;html=1;" parent="1" vertex="1">
          <mxGeometry x="1880" y="680" width="40" height="40" as="geometry" />
        </mxCell>
        <mxCell id="gq9RI1n04VUrvzgiDH-V-75" value="" style="rounded=0;whiteSpace=wrap;html=1;" parent="1" vertex="1">
          <mxGeometry x="1920" y="680" width="40" height="40" as="geometry" />
        </mxCell>
        <mxCell id="gq9RI1n04VUrvzgiDH-V-76" value="" style="rounded=0;whiteSpace=wrap;html=1;" parent="1" vertex="1">
          <mxGeometry x="1960" y="680" width="40" height="40" as="geometry" />
        </mxCell>
        <mxCell id="gq9RI1n04VUrvzgiDH-V-77" value="" style="rounded=0;whiteSpace=wrap;html=1;" parent="1" vertex="1">
          <mxGeometry x="2000" y="680" width="40" height="40" as="geometry" />
        </mxCell>
        <mxCell id="gq9RI1n04VUrvzgiDH-V-78" value="" style="rounded=0;whiteSpace=wrap;html=1;" parent="1" vertex="1">
          <mxGeometry x="2040" y="680" width="40" height="40" as="geometry" />
        </mxCell>
        <mxCell id="gq9RI1n04VUrvzgiDH-V-79" value="" style="rounded=0;whiteSpace=wrap;html=1;" parent="1" vertex="1">
          <mxGeometry x="2080" y="680" width="40" height="40" as="geometry" />
        </mxCell>
        <mxCell id="gq9RI1n04VUrvzgiDH-V-80" value="" style="rounded=0;whiteSpace=wrap;html=1;" parent="1" vertex="1">
          <mxGeometry x="2120" y="680" width="40" height="40" as="geometry" />
        </mxCell>
        <mxCell id="gq9RI1n04VUrvzgiDH-V-89" style="rounded=0;orthogonalLoop=1;jettySize=auto;html=1;exitX=0.5;exitY=1;exitDx=0;exitDy=0;entryX=0.5;entryY=0;entryDx=0;entryDy=0;" parent="1" source="gq9RI1n04VUrvzgiDH-V-90" target="gq9RI1n04VUrvzgiDH-V-106" edge="1">
          <mxGeometry relative="1" as="geometry" />
        </mxCell>
        <mxCell id="gq9RI1n04VUrvzgiDH-V-90" value="" style="rounded=0;whiteSpace=wrap;html=1;" parent="1" vertex="1">
          <mxGeometry x="1120" y="800" width="40" height="40" as="geometry" />
        </mxCell>
        <mxCell id="gq9RI1n04VUrvzgiDH-V-91" style="rounded=0;orthogonalLoop=1;jettySize=auto;html=1;exitX=0.5;exitY=1;exitDx=0;exitDy=0;entryX=0.5;entryY=0;entryDx=0;entryDy=0;" parent="1" source="gq9RI1n04VUrvzgiDH-V-92" target="gq9RI1n04VUrvzgiDH-V-105" edge="1">
          <mxGeometry relative="1" as="geometry" />
        </mxCell>
        <mxCell id="gq9RI1n04VUrvzgiDH-V-92" value="" style="rounded=0;whiteSpace=wrap;html=1;" parent="1" vertex="1">
          <mxGeometry x="1160" y="800" width="40" height="40" as="geometry" />
        </mxCell>
        <mxCell id="gq9RI1n04VUrvzgiDH-V-93" style="rounded=0;orthogonalLoop=1;jettySize=auto;html=1;exitX=0.5;exitY=1;exitDx=0;exitDy=0;entryX=0.5;entryY=0;entryDx=0;entryDy=0;" parent="1" source="gq9RI1n04VUrvzgiDH-V-94" target="gq9RI1n04VUrvzgiDH-V-108" edge="1">
          <mxGeometry relative="1" as="geometry" />
        </mxCell>
        <mxCell id="gq9RI1n04VUrvzgiDH-V-94" value="" style="rounded=0;whiteSpace=wrap;html=1;" parent="1" vertex="1">
          <mxGeometry x="1200" y="800" width="40" height="40" as="geometry" />
        </mxCell>
        <mxCell id="gq9RI1n04VUrvzgiDH-V-95" style="rounded=0;orthogonalLoop=1;jettySize=auto;html=1;exitX=0.5;exitY=1;exitDx=0;exitDy=0;entryX=0.5;entryY=0;entryDx=0;entryDy=0;" parent="1" source="gq9RI1n04VUrvzgiDH-V-96" target="gq9RI1n04VUrvzgiDH-V-107" edge="1">
          <mxGeometry relative="1" as="geometry" />
        </mxCell>
        <mxCell id="gq9RI1n04VUrvzgiDH-V-96" value="" style="rounded=0;whiteSpace=wrap;html=1;" parent="1" vertex="1">
          <mxGeometry x="1240" y="800" width="40" height="40" as="geometry" />
        </mxCell>
        <mxCell id="gq9RI1n04VUrvzgiDH-V-97" style="rounded=0;orthogonalLoop=1;jettySize=auto;html=1;exitX=0.5;exitY=1;exitDx=0;exitDy=0;entryX=0.5;entryY=0;entryDx=0;entryDy=0;" parent="1" source="gq9RI1n04VUrvzgiDH-V-98" target="gq9RI1n04VUrvzgiDH-V-110" edge="1">
          <mxGeometry relative="1" as="geometry" />
        </mxCell>
        <mxCell id="gq9RI1n04VUrvzgiDH-V-98" value="" style="rounded=0;whiteSpace=wrap;html=1;" parent="1" vertex="1">
          <mxGeometry x="1280" y="800" width="40" height="40" as="geometry" />
        </mxCell>
        <mxCell id="gq9RI1n04VUrvzgiDH-V-99" style="rounded=0;orthogonalLoop=1;jettySize=auto;html=1;exitX=0.5;exitY=1;exitDx=0;exitDy=0;entryX=0.5;entryY=0;entryDx=0;entryDy=0;" parent="1" source="gq9RI1n04VUrvzgiDH-V-100" target="gq9RI1n04VUrvzgiDH-V-109" edge="1">
          <mxGeometry relative="1" as="geometry" />
        </mxCell>
        <mxCell id="gq9RI1n04VUrvzgiDH-V-100" value="" style="rounded=0;whiteSpace=wrap;html=1;" parent="1" vertex="1">
          <mxGeometry x="1320" y="800" width="40" height="40" as="geometry" />
        </mxCell>
        <mxCell id="gq9RI1n04VUrvzgiDH-V-101" style="rounded=0;orthogonalLoop=1;jettySize=auto;html=1;exitX=0.5;exitY=1;exitDx=0;exitDy=0;entryX=0.5;entryY=0;entryDx=0;entryDy=0;" parent="1" source="gq9RI1n04VUrvzgiDH-V-102" target="gq9RI1n04VUrvzgiDH-V-112" edge="1">
          <mxGeometry relative="1" as="geometry" />
        </mxCell>
        <mxCell id="gq9RI1n04VUrvzgiDH-V-102" value="" style="rounded=0;whiteSpace=wrap;html=1;" parent="1" vertex="1">
          <mxGeometry x="1360" y="800" width="40" height="40" as="geometry" />
        </mxCell>
        <mxCell id="gq9RI1n04VUrvzgiDH-V-103" style="rounded=0;orthogonalLoop=1;jettySize=auto;html=1;exitX=0.5;exitY=1;exitDx=0;exitDy=0;entryX=0.5;entryY=0;entryDx=0;entryDy=0;" parent="1" source="gq9RI1n04VUrvzgiDH-V-104" target="gq9RI1n04VUrvzgiDH-V-111" edge="1">
          <mxGeometry relative="1" as="geometry" />
        </mxCell>
        <mxCell id="gq9RI1n04VUrvzgiDH-V-104" value="" style="rounded=0;whiteSpace=wrap;html=1;" parent="1" vertex="1">
          <mxGeometry x="1400" y="800" width="40" height="40" as="geometry" />
        </mxCell>
        <mxCell id="gq9RI1n04VUrvzgiDH-V-105" value="" style="rounded=0;whiteSpace=wrap;html=1;" parent="1" vertex="1">
          <mxGeometry x="1120" y="920" width="40" height="40" as="geometry" />
        </mxCell>
        <mxCell id="gq9RI1n04VUrvzgiDH-V-106" value="" style="rounded=0;whiteSpace=wrap;html=1;" parent="1" vertex="1">
          <mxGeometry x="1160" y="920" width="40" height="40" as="geometry" />
        </mxCell>
        <mxCell id="gq9RI1n04VUrvzgiDH-V-107" value="" style="rounded=0;whiteSpace=wrap;html=1;" parent="1" vertex="1">
          <mxGeometry x="1200" y="920" width="40" height="40" as="geometry" />
        </mxCell>
        <mxCell id="gq9RI1n04VUrvzgiDH-V-108" value="" style="rounded=0;whiteSpace=wrap;html=1;" parent="1" vertex="1">
          <mxGeometry x="1240" y="920" width="40" height="40" as="geometry" />
        </mxCell>
        <mxCell id="gq9RI1n04VUrvzgiDH-V-109" value="" style="rounded=0;whiteSpace=wrap;html=1;" parent="1" vertex="1">
          <mxGeometry x="1280" y="920" width="40" height="40" as="geometry" />
        </mxCell>
        <mxCell id="gq9RI1n04VUrvzgiDH-V-110" value="" style="rounded=0;whiteSpace=wrap;html=1;" parent="1" vertex="1">
          <mxGeometry x="1320" y="920" width="40" height="40" as="geometry" />
        </mxCell>
        <mxCell id="gq9RI1n04VUrvzgiDH-V-111" value="" style="rounded=0;whiteSpace=wrap;html=1;" parent="1" vertex="1">
          <mxGeometry x="1360" y="920" width="40" height="40" as="geometry" />
        </mxCell>
        <mxCell id="gq9RI1n04VUrvzgiDH-V-112" value="" style="rounded=0;whiteSpace=wrap;html=1;" parent="1" vertex="1">
          <mxGeometry x="1400" y="920" width="40" height="40" as="geometry" />
        </mxCell>
        <mxCell id="gq9RI1n04VUrvzgiDH-V-138" style="rounded=0;orthogonalLoop=1;jettySize=auto;html=1;exitX=0.5;exitY=1;exitDx=0;exitDy=0;entryX=0.5;entryY=0;entryDx=0;entryDy=0;" parent="1" source="gq9RI1n04VUrvzgiDH-V-114" target="gq9RI1n04VUrvzgiDH-V-132" edge="1">
          <mxGeometry relative="1" as="geometry" />
        </mxCell>
        <mxCell id="gq9RI1n04VUrvzgiDH-V-114" value="" style="rounded=0;whiteSpace=wrap;html=1;" parent="1" vertex="1">
          <mxGeometry x="1480" y="800" width="40" height="40" as="geometry" />
        </mxCell>
        <mxCell id="gq9RI1n04VUrvzgiDH-V-139" style="rounded=0;orthogonalLoop=1;jettySize=auto;html=1;exitX=0.5;exitY=1;exitDx=0;exitDy=0;entryX=0.5;entryY=0;entryDx=0;entryDy=0;" parent="1" source="gq9RI1n04VUrvzgiDH-V-116" target="gq9RI1n04VUrvzgiDH-V-131" edge="1">
          <mxGeometry relative="1" as="geometry" />
        </mxCell>
        <mxCell id="gq9RI1n04VUrvzgiDH-V-116" value="" style="rounded=0;whiteSpace=wrap;html=1;" parent="1" vertex="1">
          <mxGeometry x="1520" y="800" width="40" height="40" as="geometry" />
        </mxCell>
        <mxCell id="gq9RI1n04VUrvzgiDH-V-140" style="rounded=0;orthogonalLoop=1;jettySize=auto;html=1;exitX=0.5;exitY=1;exitDx=0;exitDy=0;entryX=0.5;entryY=0;entryDx=0;entryDy=0;" parent="1" source="gq9RI1n04VUrvzgiDH-V-118" target="gq9RI1n04VUrvzgiDH-V-130" edge="1">
          <mxGeometry relative="1" as="geometry" />
        </mxCell>
        <mxCell id="gq9RI1n04VUrvzgiDH-V-118" value="" style="rounded=0;whiteSpace=wrap;html=1;" parent="1" vertex="1">
          <mxGeometry x="1560" y="800" width="40" height="40" as="geometry" />
        </mxCell>
        <mxCell id="gq9RI1n04VUrvzgiDH-V-141" style="rounded=0;orthogonalLoop=1;jettySize=auto;html=1;exitX=0.5;exitY=1;exitDx=0;exitDy=0;entryX=0.5;entryY=0;entryDx=0;entryDy=0;" parent="1" source="gq9RI1n04VUrvzgiDH-V-120" target="gq9RI1n04VUrvzgiDH-V-129" edge="1">
          <mxGeometry relative="1" as="geometry" />
        </mxCell>
        <mxCell id="gq9RI1n04VUrvzgiDH-V-120" value="" style="rounded=0;whiteSpace=wrap;html=1;" parent="1" vertex="1">
          <mxGeometry x="1600" y="800" width="40" height="40" as="geometry" />
        </mxCell>
        <mxCell id="gq9RI1n04VUrvzgiDH-V-122" value="" style="rounded=0;whiteSpace=wrap;html=1;" parent="1" vertex="1">
          <mxGeometry x="1640" y="800" width="40" height="40" as="geometry" />
        </mxCell>
        <mxCell id="gq9RI1n04VUrvzgiDH-V-124" value="" style="rounded=0;whiteSpace=wrap;html=1;" parent="1" vertex="1">
          <mxGeometry x="1680" y="800" width="40" height="40" as="geometry" />
        </mxCell>
        <mxCell id="gq9RI1n04VUrvzgiDH-V-126" value="" style="rounded=0;whiteSpace=wrap;html=1;" parent="1" vertex="1">
          <mxGeometry x="1720" y="800" width="40" height="40" as="geometry" />
        </mxCell>
        <mxCell id="gq9RI1n04VUrvzgiDH-V-128" value="" style="rounded=0;whiteSpace=wrap;html=1;" parent="1" vertex="1">
          <mxGeometry x="1760" y="800" width="40" height="40" as="geometry" />
        </mxCell>
        <mxCell id="gq9RI1n04VUrvzgiDH-V-129" value="" style="rounded=0;whiteSpace=wrap;html=1;" parent="1" vertex="1">
          <mxGeometry x="1480" y="920" width="40" height="40" as="geometry" />
        </mxCell>
        <mxCell id="gq9RI1n04VUrvzgiDH-V-130" value="" style="rounded=0;whiteSpace=wrap;html=1;" parent="1" vertex="1">
          <mxGeometry x="1520" y="920" width="40" height="40" as="geometry" />
        </mxCell>
        <mxCell id="gq9RI1n04VUrvzgiDH-V-131" value="" style="rounded=0;whiteSpace=wrap;html=1;" parent="1" vertex="1">
          <mxGeometry x="1560" y="920" width="40" height="40" as="geometry" />
        </mxCell>
        <mxCell id="gq9RI1n04VUrvzgiDH-V-132" value="" style="rounded=0;whiteSpace=wrap;html=1;" parent="1" vertex="1">
          <mxGeometry x="1600" y="920" width="40" height="40" as="geometry" />
        </mxCell>
        <mxCell id="gq9RI1n04VUrvzgiDH-V-133" value="" style="rounded=0;whiteSpace=wrap;html=1;" parent="1" vertex="1">
          <mxGeometry x="1640" y="920" width="40" height="40" as="geometry" />
        </mxCell>
        <mxCell id="gq9RI1n04VUrvzgiDH-V-134" value="" style="rounded=0;whiteSpace=wrap;html=1;" parent="1" vertex="1">
          <mxGeometry x="1680" y="920" width="40" height="40" as="geometry" />
        </mxCell>
        <mxCell id="gq9RI1n04VUrvzgiDH-V-135" value="" style="rounded=0;whiteSpace=wrap;html=1;" parent="1" vertex="1">
          <mxGeometry x="1720" y="920" width="40" height="40" as="geometry" />
        </mxCell>
        <mxCell id="gq9RI1n04VUrvzgiDH-V-136" value="" style="rounded=0;whiteSpace=wrap;html=1;" parent="1" vertex="1">
          <mxGeometry x="1760" y="920" width="40" height="40" as="geometry" />
        </mxCell>
        <mxCell id="gq9RI1n04VUrvzgiDH-V-142" style="rounded=0;orthogonalLoop=1;jettySize=auto;html=1;exitX=0.5;exitY=1;exitDx=0;exitDy=0;entryX=0.5;entryY=0;entryDx=0;entryDy=0;" parent="1" edge="1">
          <mxGeometry relative="1" as="geometry">
            <mxPoint x="1660" y="840" as="sourcePoint" />
            <mxPoint x="1780" y="920" as="targetPoint" />
          </mxGeometry>
        </mxCell>
        <mxCell id="gq9RI1n04VUrvzgiDH-V-143" style="rounded=0;orthogonalLoop=1;jettySize=auto;html=1;exitX=0.5;exitY=1;exitDx=0;exitDy=0;entryX=0.5;entryY=0;entryDx=0;entryDy=0;" parent="1" edge="1">
          <mxGeometry relative="1" as="geometry">
            <mxPoint x="1700" y="840" as="sourcePoint" />
            <mxPoint x="1740" y="920" as="targetPoint" />
          </mxGeometry>
        </mxCell>
        <mxCell id="gq9RI1n04VUrvzgiDH-V-144" style="rounded=0;orthogonalLoop=1;jettySize=auto;html=1;exitX=0.5;exitY=1;exitDx=0;exitDy=0;entryX=0.5;entryY=0;entryDx=0;entryDy=0;" parent="1" edge="1">
          <mxGeometry relative="1" as="geometry">
            <mxPoint x="1740" y="840" as="sourcePoint" />
            <mxPoint x="1700" y="920" as="targetPoint" />
          </mxGeometry>
        </mxCell>
        <mxCell id="gq9RI1n04VUrvzgiDH-V-145" style="rounded=0;orthogonalLoop=1;jettySize=auto;html=1;exitX=0.5;exitY=1;exitDx=0;exitDy=0;entryX=0.5;entryY=0;entryDx=0;entryDy=0;" parent="1" edge="1">
          <mxGeometry relative="1" as="geometry">
            <mxPoint x="1780" y="840" as="sourcePoint" />
            <mxPoint x="1660" y="920" as="targetPoint" />
          </mxGeometry>
        </mxCell>
        <mxCell id="gq9RI1n04VUrvzgiDH-V-170" style="rounded=0;orthogonalLoop=1;jettySize=auto;html=1;exitX=0.5;exitY=1;exitDx=0;exitDy=0;entryX=0.5;entryY=0;entryDx=0;entryDy=0;" parent="1" source="gq9RI1n04VUrvzgiDH-V-147" target="gq9RI1n04VUrvzgiDH-V-165" edge="1">
          <mxGeometry relative="1" as="geometry" />
        </mxCell>
        <mxCell id="gq9RI1n04VUrvzgiDH-V-147" value="" style="rounded=0;whiteSpace=wrap;html=1;" parent="1" vertex="1">
          <mxGeometry x="1840" y="800" width="40" height="40" as="geometry" />
        </mxCell>
        <mxCell id="gq9RI1n04VUrvzgiDH-V-171" style="rounded=0;orthogonalLoop=1;jettySize=auto;html=1;exitX=0.5;exitY=1;exitDx=0;exitDy=0;entryX=0.5;entryY=0;entryDx=0;entryDy=0;" parent="1" source="gq9RI1n04VUrvzgiDH-V-149" target="gq9RI1n04VUrvzgiDH-V-164" edge="1">
          <mxGeometry relative="1" as="geometry" />
        </mxCell>
        <mxCell id="gq9RI1n04VUrvzgiDH-V-149" value="" style="rounded=0;whiteSpace=wrap;html=1;" parent="1" vertex="1">
          <mxGeometry x="1880" y="800" width="40" height="40" as="geometry" />
        </mxCell>
        <mxCell id="gq9RI1n04VUrvzgiDH-V-172" style="rounded=0;orthogonalLoop=1;jettySize=auto;html=1;exitX=0.5;exitY=1;exitDx=0;exitDy=0;entryX=0.5;entryY=0;entryDx=0;entryDy=0;" parent="1" source="gq9RI1n04VUrvzgiDH-V-151" target="gq9RI1n04VUrvzgiDH-V-163" edge="1">
          <mxGeometry relative="1" as="geometry" />
        </mxCell>
        <mxCell id="gq9RI1n04VUrvzgiDH-V-151" value="" style="rounded=0;whiteSpace=wrap;html=1;" parent="1" vertex="1">
          <mxGeometry x="1920" y="800" width="40" height="40" as="geometry" />
        </mxCell>
        <mxCell id="gq9RI1n04VUrvzgiDH-V-173" style="rounded=0;orthogonalLoop=1;jettySize=auto;html=1;exitX=0.5;exitY=1;exitDx=0;exitDy=0;entryX=0.5;entryY=0;entryDx=0;entryDy=0;" parent="1" source="gq9RI1n04VUrvzgiDH-V-153" target="gq9RI1n04VUrvzgiDH-V-162" edge="1">
          <mxGeometry relative="1" as="geometry" />
        </mxCell>
        <mxCell id="gq9RI1n04VUrvzgiDH-V-153" value="" style="rounded=0;whiteSpace=wrap;html=1;" parent="1" vertex="1">
          <mxGeometry x="1960" y="800" width="40" height="40" as="geometry" />
        </mxCell>
        <mxCell id="gq9RI1n04VUrvzgiDH-V-174" style="rounded=0;orthogonalLoop=1;jettySize=auto;html=1;exitX=0.5;exitY=1;exitDx=0;exitDy=0;entryX=0.5;entryY=0;entryDx=0;entryDy=0;" parent="1" source="gq9RI1n04VUrvzgiDH-V-154" target="gq9RI1n04VUrvzgiDH-V-161" edge="1">
          <mxGeometry relative="1" as="geometry" />
        </mxCell>
        <mxCell id="gq9RI1n04VUrvzgiDH-V-154" value="" style="rounded=0;whiteSpace=wrap;html=1;" parent="1" vertex="1">
          <mxGeometry x="2000" y="800" width="40" height="40" as="geometry" />
        </mxCell>
        <mxCell id="gq9RI1n04VUrvzgiDH-V-176" style="rounded=0;orthogonalLoop=1;jettySize=auto;html=1;exitX=0.5;exitY=1;exitDx=0;exitDy=0;entryX=0.5;entryY=0;entryDx=0;entryDy=0;" parent="1" source="gq9RI1n04VUrvzgiDH-V-155" target="gq9RI1n04VUrvzgiDH-V-160" edge="1">
          <mxGeometry relative="1" as="geometry" />
        </mxCell>
        <mxCell id="gq9RI1n04VUrvzgiDH-V-155" value="" style="rounded=0;whiteSpace=wrap;html=1;" parent="1" vertex="1">
          <mxGeometry x="2040" y="800" width="40" height="40" as="geometry" />
        </mxCell>
        <mxCell id="gq9RI1n04VUrvzgiDH-V-177" style="rounded=0;orthogonalLoop=1;jettySize=auto;html=1;exitX=0.5;exitY=1;exitDx=0;exitDy=0;entryX=0.5;entryY=0;entryDx=0;entryDy=0;" parent="1" source="gq9RI1n04VUrvzgiDH-V-156" target="gq9RI1n04VUrvzgiDH-V-159" edge="1">
          <mxGeometry relative="1" as="geometry" />
        </mxCell>
        <mxCell id="gq9RI1n04VUrvzgiDH-V-156" value="" style="rounded=0;whiteSpace=wrap;html=1;" parent="1" vertex="1">
          <mxGeometry x="2080" y="800" width="40" height="40" as="geometry" />
        </mxCell>
        <mxCell id="gq9RI1n04VUrvzgiDH-V-178" style="rounded=0;orthogonalLoop=1;jettySize=auto;html=1;exitX=0.5;exitY=1;exitDx=0;exitDy=0;entryX=0.5;entryY=0;entryDx=0;entryDy=0;" parent="1" source="gq9RI1n04VUrvzgiDH-V-157" target="gq9RI1n04VUrvzgiDH-V-158" edge="1">
          <mxGeometry relative="1" as="geometry" />
        </mxCell>
        <mxCell id="gq9RI1n04VUrvzgiDH-V-157" value="" style="rounded=0;whiteSpace=wrap;html=1;" parent="1" vertex="1">
          <mxGeometry x="2120" y="800" width="40" height="40" as="geometry" />
        </mxCell>
        <mxCell id="gq9RI1n04VUrvzgiDH-V-158" value="" style="rounded=0;whiteSpace=wrap;html=1;" parent="1" vertex="1">
          <mxGeometry x="1840" y="920" width="40" height="40" as="geometry" />
        </mxCell>
        <mxCell id="gq9RI1n04VUrvzgiDH-V-159" value="" style="rounded=0;whiteSpace=wrap;html=1;" parent="1" vertex="1">
          <mxGeometry x="1880" y="920" width="40" height="40" as="geometry" />
        </mxCell>
        <mxCell id="gq9RI1n04VUrvzgiDH-V-160" value="" style="rounded=0;whiteSpace=wrap;html=1;" parent="1" vertex="1">
          <mxGeometry x="1920" y="920" width="40" height="40" as="geometry" />
        </mxCell>
        <mxCell id="gq9RI1n04VUrvzgiDH-V-161" value="" style="rounded=0;whiteSpace=wrap;html=1;" parent="1" vertex="1">
          <mxGeometry x="1960" y="920" width="40" height="40" as="geometry" />
        </mxCell>
        <mxCell id="gq9RI1n04VUrvzgiDH-V-162" value="" style="rounded=0;whiteSpace=wrap;html=1;" parent="1" vertex="1">
          <mxGeometry x="2000" y="920" width="40" height="40" as="geometry" />
        </mxCell>
        <mxCell id="gq9RI1n04VUrvzgiDH-V-163" value="" style="rounded=0;whiteSpace=wrap;html=1;" parent="1" vertex="1">
          <mxGeometry x="2040" y="920" width="40" height="40" as="geometry" />
        </mxCell>
        <mxCell id="gq9RI1n04VUrvzgiDH-V-164" value="" style="rounded=0;whiteSpace=wrap;html=1;" parent="1" vertex="1">
          <mxGeometry x="2080" y="920" width="40" height="40" as="geometry" />
        </mxCell>
        <mxCell id="gq9RI1n04VUrvzgiDH-V-165" value="" style="rounded=0;whiteSpace=wrap;html=1;" parent="1" vertex="1">
          <mxGeometry x="2120" y="920" width="40" height="40" as="geometry" />
        </mxCell>
        <mxCell id="gq9RI1n04VUrvzgiDH-V-179" value="BITSWAP" style="text;html=1;strokeColor=none;fillColor=none;align=center;verticalAlign=middle;whiteSpace=wrap;rounded=0;" parent="1" vertex="1">
          <mxGeometry x="1000" y="560" width="80" height="40" as="geometry" />
        </mxCell>
        <mxCell id="gq9RI1n04VUrvzgiDH-V-180" value="BITREVERSE" style="text;html=1;strokeColor=none;fillColor=none;align=center;verticalAlign=middle;whiteSpace=wrap;rounded=0;" parent="1" vertex="1">
          <mxGeometry x="1000" y="800" width="80" height="40" as="geometry" />
        </mxCell>
        <mxCell id="MPMmMHSIt03XvAuCb8_y-19" style="rounded=0;orthogonalLoop=1;jettySize=auto;html=1;exitX=0.5;exitY=1;exitDx=0;exitDy=0;entryX=0.5;entryY=0;entryDx=0;entryDy=0;" parent="1" source="MPMmMHSIt03XvAuCb8_y-1" target="MPMmMHSIt03XvAuCb8_y-10" edge="1">
          <mxGeometry relative="1" as="geometry" />
        </mxCell>
        <mxCell id="MPMmMHSIt03XvAuCb8_y-1" value="" style="rounded=0;whiteSpace=wrap;html=1;fillColor=#660000;" parent="1" vertex="1">
          <mxGeometry x="1120" y="1120" width="40" height="40" as="geometry" />
        </mxCell>
        <mxCell id="MPMmMHSIt03XvAuCb8_y-18" style="rounded=0;orthogonalLoop=1;jettySize=auto;html=1;exitX=0.5;exitY=1;exitDx=0;exitDy=0;entryX=0.5;entryY=0;entryDx=0;entryDy=0;" parent="1" source="MPMmMHSIt03XvAuCb8_y-2" target="MPMmMHSIt03XvAuCb8_y-11" edge="1">
          <mxGeometry relative="1" as="geometry" />
        </mxCell>
        <mxCell id="MPMmMHSIt03XvAuCb8_y-2" value="" style="rounded=0;whiteSpace=wrap;html=1;fillColor=#660000;" parent="1" vertex="1">
          <mxGeometry x="1160" y="1120" width="40" height="40" as="geometry" />
        </mxCell>
        <mxCell id="MPMmMHSIt03XvAuCb8_y-17" style="rounded=0;orthogonalLoop=1;jettySize=auto;html=1;exitX=0.5;exitY=1;exitDx=0;exitDy=0;entryX=0.5;entryY=0;entryDx=0;entryDy=0;" parent="1" source="MPMmMHSIt03XvAuCb8_y-3" target="MPMmMHSIt03XvAuCb8_y-12" edge="1">
          <mxGeometry relative="1" as="geometry" />
        </mxCell>
        <mxCell id="MPMmMHSIt03XvAuCb8_y-3" value="" style="rounded=0;whiteSpace=wrap;html=1;fillColor=#660000;" parent="1" vertex="1">
          <mxGeometry x="1200" y="1120" width="40" height="40" as="geometry" />
        </mxCell>
        <mxCell id="MPMmMHSIt03XvAuCb8_y-4" value="" style="rounded=0;whiteSpace=wrap;html=1;fillColor=#660000;" parent="1" vertex="1">
          <mxGeometry x="1240" y="1120" width="40" height="40" as="geometry" />
        </mxCell>
        <mxCell id="MPMmMHSIt03XvAuCb8_y-5" value="" style="rounded=0;whiteSpace=wrap;html=1;fillColor=#000066;" parent="1" vertex="1">
          <mxGeometry x="1320" y="1120" width="40" height="40" as="geometry" />
        </mxCell>
        <mxCell id="MPMmMHSIt03XvAuCb8_y-6" value="" style="rounded=0;whiteSpace=wrap;html=1;fillColor=#000066;" parent="1" vertex="1">
          <mxGeometry x="1360" y="1120" width="40" height="40" as="geometry" />
        </mxCell>
        <mxCell id="MPMmMHSIt03XvAuCb8_y-7" value="" style="rounded=0;whiteSpace=wrap;html=1;fillColor=#000066;" parent="1" vertex="1">
          <mxGeometry x="1400" y="1120" width="40" height="40" as="geometry" />
        </mxCell>
        <mxCell id="MPMmMHSIt03XvAuCb8_y-20" style="rounded=0;orthogonalLoop=1;jettySize=auto;html=1;exitX=0.5;exitY=1;exitDx=0;exitDy=0;entryX=0.5;entryY=0;entryDx=0;entryDy=0;" parent="1" source="MPMmMHSIt03XvAuCb8_y-8" target="MPMmMHSIt03XvAuCb8_y-9" edge="1">
          <mxGeometry relative="1" as="geometry" />
        </mxCell>
        <mxCell id="MPMmMHSIt03XvAuCb8_y-8" value="" style="rounded=0;whiteSpace=wrap;html=1;fillColor=#000066;" parent="1" vertex="1">
          <mxGeometry x="1440" y="1120" width="40" height="40" as="geometry" />
        </mxCell>
        <mxCell id="MPMmMHSIt03XvAuCb8_y-9" value="" style="rounded=0;whiteSpace=wrap;html=1;" parent="1" vertex="1">
          <mxGeometry x="1220" y="1240" width="40" height="40" as="geometry" />
        </mxCell>
        <mxCell id="MPMmMHSIt03XvAuCb8_y-10" value="" style="rounded=0;whiteSpace=wrap;html=1;" parent="1" vertex="1">
          <mxGeometry x="1260" y="1240" width="40" height="40" as="geometry" />
        </mxCell>
        <mxCell id="MPMmMHSIt03XvAuCb8_y-11" value="" style="rounded=0;whiteSpace=wrap;html=1;" parent="1" vertex="1">
          <mxGeometry x="1300" y="1240" width="40" height="40" as="geometry" />
        </mxCell>
        <mxCell id="MPMmMHSIt03XvAuCb8_y-12" value="" style="rounded=0;whiteSpace=wrap;html=1;" parent="1" vertex="1">
          <mxGeometry x="1340" y="1240" width="40" height="40" as="geometry" />
        </mxCell>
        <mxCell id="MPMmMHSIt03XvAuCb8_y-28" style="edgeStyle=orthogonalEdgeStyle;rounded=0;orthogonalLoop=1;jettySize=auto;html=1;exitX=0.5;exitY=1;exitDx=0;exitDy=0;entryX=0.5;entryY=1;entryDx=0;entryDy=0;" parent="1" source="MPMmMHSIt03XvAuCb8_y-13" target="MPMmMHSIt03XvAuCb8_y-22" edge="1">
          <mxGeometry relative="1" as="geometry" />
        </mxCell>
        <mxCell id="MPMmMHSIt03XvAuCb8_y-29" style="edgeStyle=orthogonalEdgeStyle;rounded=0;orthogonalLoop=1;jettySize=auto;html=1;exitX=0.5;exitY=1;exitDx=0;exitDy=0;entryX=0.5;entryY=1;entryDx=0;entryDy=0;" parent="1" source="MPMmMHSIt03XvAuCb8_y-13" target="MPMmMHSIt03XvAuCb8_y-24" edge="1">
          <mxGeometry relative="1" as="geometry" />
        </mxCell>
        <mxCell id="MPMmMHSIt03XvAuCb8_y-30" style="edgeStyle=orthogonalEdgeStyle;rounded=0;orthogonalLoop=1;jettySize=auto;html=1;exitX=0.5;exitY=1;exitDx=0;exitDy=0;entryX=0.5;entryY=1;entryDx=0;entryDy=0;startArrow=classic;startFill=1;" parent="1" source="MPMmMHSIt03XvAuCb8_y-13" target="MPMmMHSIt03XvAuCb8_y-26" edge="1">
          <mxGeometry relative="1" as="geometry" />
        </mxCell>
        <mxCell id="MPMmMHSIt03XvAuCb8_y-13" value="00" style="rounded=0;whiteSpace=wrap;html=1;" parent="1" vertex="1">
          <mxGeometry x="1540" y="1120" width="40" height="40" as="geometry" />
        </mxCell>
        <mxCell id="MPMmMHSIt03XvAuCb8_y-21" value="1" style="rounded=0;whiteSpace=wrap;html=1;fillColor=#000066;" parent="1" vertex="1">
          <mxGeometry x="1520" y="1120" width="20" height="40" as="geometry" />
        </mxCell>
        <mxCell id="MPMmMHSIt03XvAuCb8_y-22" value="11" style="rounded=0;whiteSpace=wrap;html=1;" parent="1" vertex="1">
          <mxGeometry x="1600" y="1120" width="40" height="40" as="geometry" />
        </mxCell>
        <mxCell id="MPMmMHSIt03XvAuCb8_y-23" value="0" style="rounded=0;whiteSpace=wrap;html=1;fillColor=#660000;" parent="1" vertex="1">
          <mxGeometry x="1580" y="1120" width="20" height="40" as="geometry" />
        </mxCell>
        <mxCell id="MPMmMHSIt03XvAuCb8_y-24" value="10" style="rounded=0;whiteSpace=wrap;html=1;" parent="1" vertex="1">
          <mxGeometry x="1660" y="1120" width="40" height="40" as="geometry" />
        </mxCell>
        <mxCell id="MPMmMHSIt03XvAuCb8_y-25" value="0" style="rounded=0;whiteSpace=wrap;html=1;fillColor=#660000;" parent="1" vertex="1">
          <mxGeometry x="1640" y="1120" width="20" height="40" as="geometry" />
        </mxCell>
        <mxCell id="MPMmMHSIt03XvAuCb8_y-26" value="01" style="rounded=0;whiteSpace=wrap;html=1;" parent="1" vertex="1">
          <mxGeometry x="1720" y="1120" width="40" height="40" as="geometry" />
        </mxCell>
        <mxCell id="MPMmMHSIt03XvAuCb8_y-27" value="0" style="rounded=0;whiteSpace=wrap;html=1;fillColor=#660000;" parent="1" vertex="1">
          <mxGeometry x="1700" y="1120" width="20" height="40" as="geometry" />
        </mxCell>
        <mxCell id="MPMmMHSIt03XvAuCb8_y-31" value="byte sel." style="text;html=1;strokeColor=none;fillColor=none;align=center;verticalAlign=middle;whiteSpace=wrap;rounded=0;" parent="1" vertex="1">
          <mxGeometry x="1620" y="1180" width="60" height="30" as="geometry" />
        </mxCell>
        <mxCell id="MPMmMHSIt03XvAuCb8_y-32" value="MIX" style="text;html=1;strokeColor=none;fillColor=none;align=center;verticalAlign=middle;whiteSpace=wrap;rounded=0;" parent="1" vertex="1">
          <mxGeometry x="1000" y="1120" width="80" height="40" as="geometry" />
        </mxCell>
        <mxCell id="fiwRzBfgnx0wqpYhPG-j-27" style="rounded=0;orthogonalLoop=1;jettySize=auto;html=1;exitX=0.5;exitY=1;exitDx=0;exitDy=0;entryX=0.5;entryY=0;entryDx=0;entryDy=0;" parent="1" source="fiwRzBfgnx0wqpYhPG-j-1" target="fiwRzBfgnx0wqpYhPG-j-19" edge="1">
          <mxGeometry relative="1" as="geometry" />
        </mxCell>
        <mxCell id="fiwRzBfgnx0wqpYhPG-j-1" value="" style="rounded=0;whiteSpace=wrap;html=1;" parent="1" vertex="1">
          <mxGeometry x="1160" y="1560" width="40" height="40" as="geometry" />
        </mxCell>
        <mxCell id="fiwRzBfgnx0wqpYhPG-j-28" style="rounded=0;orthogonalLoop=1;jettySize=auto;html=1;exitX=0.5;exitY=1;exitDx=0;exitDy=0;entryX=0.5;entryY=0;entryDx=0;entryDy=0;" parent="1" source="fiwRzBfgnx0wqpYhPG-j-2" target="fiwRzBfgnx0wqpYhPG-j-22" edge="1">
          <mxGeometry relative="1" as="geometry" />
        </mxCell>
        <mxCell id="fiwRzBfgnx0wqpYhPG-j-2" value="" style="rounded=0;whiteSpace=wrap;html=1;" parent="1" vertex="1">
          <mxGeometry x="1200" y="1560" width="40" height="40" as="geometry" />
        </mxCell>
        <mxCell id="fiwRzBfgnx0wqpYhPG-j-29" style="rounded=0;orthogonalLoop=1;jettySize=auto;html=1;exitX=0.5;exitY=1;exitDx=0;exitDy=0;entryX=0.5;entryY=0;entryDx=0;entryDy=0;" parent="1" source="fiwRzBfgnx0wqpYhPG-j-3" target="fiwRzBfgnx0wqpYhPG-j-21" edge="1">
          <mxGeometry relative="1" as="geometry" />
        </mxCell>
        <mxCell id="fiwRzBfgnx0wqpYhPG-j-3" value="" style="rounded=0;whiteSpace=wrap;html=1;" parent="1" vertex="1">
          <mxGeometry x="1240" y="1560" width="40" height="40" as="geometry" />
        </mxCell>
        <mxCell id="fiwRzBfgnx0wqpYhPG-j-31" style="rounded=0;orthogonalLoop=1;jettySize=auto;html=1;exitX=0.5;exitY=1;exitDx=0;exitDy=0;entryX=0.5;entryY=0;entryDx=0;entryDy=0;" parent="1" source="fiwRzBfgnx0wqpYhPG-j-4" target="fiwRzBfgnx0wqpYhPG-j-23" edge="1">
          <mxGeometry relative="1" as="geometry" />
        </mxCell>
        <mxCell id="fiwRzBfgnx0wqpYhPG-j-4" value="" style="rounded=0;whiteSpace=wrap;html=1;" parent="1" vertex="1">
          <mxGeometry x="1280" y="1560" width="40" height="40" as="geometry" />
        </mxCell>
        <mxCell id="fiwRzBfgnx0wqpYhPG-j-5" value="PERMUTE&lt;div&gt;(4b groups)&lt;/div&gt;" style="text;html=1;strokeColor=none;fillColor=none;align=center;verticalAlign=middle;whiteSpace=wrap;rounded=0;" parent="1" vertex="1">
          <mxGeometry x="1040" y="1560" width="80" height="40" as="geometry" />
        </mxCell>
        <mxCell id="fiwRzBfgnx0wqpYhPG-j-30" style="rounded=0;orthogonalLoop=1;jettySize=auto;html=1;exitX=0.5;exitY=1;exitDx=0;exitDy=0;entryX=0.5;entryY=0;entryDx=0;entryDy=0;" parent="1" source="fiwRzBfgnx0wqpYhPG-j-7" target="fiwRzBfgnx0wqpYhPG-j-20" edge="1">
          <mxGeometry relative="1" as="geometry" />
        </mxCell>
        <mxCell id="fiwRzBfgnx0wqpYhPG-j-7" value="" style="rounded=0;whiteSpace=wrap;html=1;" parent="1" vertex="1">
          <mxGeometry x="1320" y="1560" width="40" height="40" as="geometry" />
        </mxCell>
        <mxCell id="fiwRzBfgnx0wqpYhPG-j-32" style="rounded=0;orthogonalLoop=1;jettySize=auto;html=1;exitX=0.5;exitY=1;exitDx=0;exitDy=0;entryX=0.5;entryY=0;entryDx=0;entryDy=0;" parent="1" source="fiwRzBfgnx0wqpYhPG-j-8" target="fiwRzBfgnx0wqpYhPG-j-24" edge="1">
          <mxGeometry relative="1" as="geometry" />
        </mxCell>
        <mxCell id="fiwRzBfgnx0wqpYhPG-j-8" value="" style="rounded=0;whiteSpace=wrap;html=1;" parent="1" vertex="1">
          <mxGeometry x="1360" y="1560" width="40" height="40" as="geometry" />
        </mxCell>
        <mxCell id="fiwRzBfgnx0wqpYhPG-j-34" style="rounded=0;orthogonalLoop=1;jettySize=auto;html=1;exitX=0.5;exitY=1;exitDx=0;exitDy=0;entryX=0.5;entryY=0;entryDx=0;entryDy=0;" parent="1" source="fiwRzBfgnx0wqpYhPG-j-9" target="fiwRzBfgnx0wqpYhPG-j-26" edge="1">
          <mxGeometry relative="1" as="geometry" />
        </mxCell>
        <mxCell id="fiwRzBfgnx0wqpYhPG-j-9" value="" style="rounded=0;whiteSpace=wrap;html=1;" parent="1" vertex="1">
          <mxGeometry x="1400" y="1560" width="40" height="40" as="geometry" />
        </mxCell>
        <mxCell id="fiwRzBfgnx0wqpYhPG-j-33" style="rounded=0;orthogonalLoop=1;jettySize=auto;html=1;exitX=0.5;exitY=1;exitDx=0;exitDy=0;entryX=0.5;entryY=0;entryDx=0;entryDy=0;" parent="1" source="fiwRzBfgnx0wqpYhPG-j-10" target="fiwRzBfgnx0wqpYhPG-j-25" edge="1">
          <mxGeometry relative="1" as="geometry" />
        </mxCell>
        <mxCell id="fiwRzBfgnx0wqpYhPG-j-10" value="" style="rounded=0;whiteSpace=wrap;html=1;" parent="1" vertex="1">
          <mxGeometry x="1440" y="1560" width="40" height="40" as="geometry" />
        </mxCell>
        <mxCell id="fiwRzBfgnx0wqpYhPG-j-11" value="000" style="rounded=0;whiteSpace=wrap;html=1;" parent="1" vertex="1">
          <mxGeometry x="1560" y="1560" width="40" height="40" as="geometry" />
        </mxCell>
        <mxCell id="fiwRzBfgnx0wqpYhPG-j-12" value="011" style="rounded=0;whiteSpace=wrap;html=1;" parent="1" vertex="1">
          <mxGeometry x="1600" y="1560" width="40" height="40" as="geometry" />
        </mxCell>
        <mxCell id="fiwRzBfgnx0wqpYhPG-j-13" value="010" style="rounded=0;whiteSpace=wrap;html=1;" parent="1" vertex="1">
          <mxGeometry x="1640" y="1560" width="40" height="40" as="geometry" />
        </mxCell>
        <mxCell id="fiwRzBfgnx0wqpYhPG-j-14" value="100" style="rounded=0;whiteSpace=wrap;html=1;" parent="1" vertex="1">
          <mxGeometry x="1680" y="1560" width="40" height="40" as="geometry" />
        </mxCell>
        <mxCell id="fiwRzBfgnx0wqpYhPG-j-15" value="001" style="rounded=0;whiteSpace=wrap;html=1;" parent="1" vertex="1">
          <mxGeometry x="1720" y="1560" width="40" height="40" as="geometry" />
        </mxCell>
        <mxCell id="fiwRzBfgnx0wqpYhPG-j-16" value="101" style="rounded=0;whiteSpace=wrap;html=1;" parent="1" vertex="1">
          <mxGeometry x="1760" y="1560" width="40" height="40" as="geometry" />
        </mxCell>
        <mxCell id="fiwRzBfgnx0wqpYhPG-j-17" value="111" style="rounded=0;whiteSpace=wrap;html=1;" parent="1" vertex="1">
          <mxGeometry x="1800" y="1560" width="40" height="40" as="geometry" />
        </mxCell>
        <mxCell id="fiwRzBfgnx0wqpYhPG-j-18" value="110" style="rounded=0;whiteSpace=wrap;html=1;" parent="1" vertex="1">
          <mxGeometry x="1840" y="1560" width="40" height="40" as="geometry" />
        </mxCell>
        <mxCell id="fiwRzBfgnx0wqpYhPG-j-19" value="" style="rounded=0;whiteSpace=wrap;html=1;" parent="1" vertex="1">
          <mxGeometry x="1160" y="1680" width="40" height="40" as="geometry" />
        </mxCell>
        <mxCell id="fiwRzBfgnx0wqpYhPG-j-20" value="" style="rounded=0;whiteSpace=wrap;html=1;" parent="1" vertex="1">
          <mxGeometry x="1200" y="1680" width="40" height="40" as="geometry" />
        </mxCell>
        <mxCell id="fiwRzBfgnx0wqpYhPG-j-21" value="" style="rounded=0;whiteSpace=wrap;html=1;" parent="1" vertex="1">
          <mxGeometry x="1240" y="1680" width="40" height="40" as="geometry" />
        </mxCell>
        <mxCell id="fiwRzBfgnx0wqpYhPG-j-22" value="" style="rounded=0;whiteSpace=wrap;html=1;" parent="1" vertex="1">
          <mxGeometry x="1280" y="1680" width="40" height="40" as="geometry" />
        </mxCell>
        <mxCell id="fiwRzBfgnx0wqpYhPG-j-23" value="" style="rounded=0;whiteSpace=wrap;html=1;" parent="1" vertex="1">
          <mxGeometry x="1320" y="1680" width="40" height="40" as="geometry" />
        </mxCell>
        <mxCell id="fiwRzBfgnx0wqpYhPG-j-24" value="" style="rounded=0;whiteSpace=wrap;html=1;" parent="1" vertex="1">
          <mxGeometry x="1360" y="1680" width="40" height="40" as="geometry" />
        </mxCell>
        <mxCell id="fiwRzBfgnx0wqpYhPG-j-25" value="" style="rounded=0;whiteSpace=wrap;html=1;" parent="1" vertex="1">
          <mxGeometry x="1400" y="1680" width="40" height="40" as="geometry" />
        </mxCell>
        <mxCell id="fiwRzBfgnx0wqpYhPG-j-26" value="" style="rounded=0;whiteSpace=wrap;html=1;" parent="1" vertex="1">
          <mxGeometry x="1440" y="1680" width="40" height="40" as="geometry" />
        </mxCell>
        <mxCell id="fiwRzBfgnx0wqpYhPG-j-35" value="each number is the final position" style="text;html=1;strokeColor=none;fillColor=none;align=center;verticalAlign=middle;whiteSpace=wrap;rounded=0;" parent="1" vertex="1">
          <mxGeometry x="1560" y="1490" width="320" height="40" as="geometry" />
        </mxCell>
      </root>
    </mxGraphModel>
  </diagram>
  <diagram id="sloZ7e64K-PY_kRTY1_F" name="Page-2">
    <mxGraphModel dx="1928" dy="986" grid="1" gridSize="10" guides="0" tooltips="1" connect="1" arrows="1" fold="1" page="1" pageScale="1" pageWidth="4681" pageHeight="3300" math="0" shadow="0">
      <root>
        <mxCell id="0" />
        <mxCell id="1" parent="0" />
        <mxCell id="HmrVni0DYpz4vH6xfYJv-105" value="op&lt;div&gt;3..0&lt;/div&gt;" style="rounded=0;whiteSpace=wrap;html=1;fillColor=#990000;" parent="1" vertex="1">
          <mxGeometry x="280" y="210" width="160" height="40" as="geometry" />
        </mxCell>
        <mxCell id="HmrVni0DYpz4vH6xfYJv-106" value="2R-A" style="text;html=1;align=center;verticalAlign=middle;whiteSpace=wrap;rounded=0;" parent="1" vertex="1">
          <mxGeometry x="160" y="210" width="80" height="40" as="geometry" />
        </mxCell>
        <mxCell id="HmrVni0DYpz4vH6xfYJv-107" value="op&lt;div&gt;3..0&lt;/div&gt;" style="rounded=0;whiteSpace=wrap;html=1;fillColor=#990000;" parent="1" vertex="1">
          <mxGeometry x="280" y="260" width="160" height="40" as="geometry" />
        </mxCell>
        <mxCell id="HmrVni0DYpz4vH6xfYJv-108" value="op&lt;div&gt;3..0&lt;/div&gt;" style="rounded=0;whiteSpace=wrap;html=1;fillColor=#990000;" parent="1" vertex="1">
          <mxGeometry x="280" y="310" width="160" height="40" as="geometry" />
        </mxCell>
        <mxCell id="HmrVni0DYpz4vH6xfYJv-109" value="3R-A" style="text;html=1;align=center;verticalAlign=middle;whiteSpace=wrap;rounded=0;" parent="1" vertex="1">
          <mxGeometry x="160" y="260" width="80" height="40" as="geometry" />
        </mxCell>
        <mxCell id="HmrVni0DYpz4vH6xfYJv-110" value="4R-A" style="text;html=1;align=center;verticalAlign=middle;whiteSpace=wrap;rounded=0;" parent="1" vertex="1">
          <mxGeometry x="160" y="310" width="80" height="40" as="geometry" />
        </mxCell>
        <mxCell id="HmrVni0DYpz4vH6xfYJv-111" value="I-A" style="text;html=1;align=center;verticalAlign=middle;whiteSpace=wrap;rounded=0;" parent="1" vertex="1">
          <mxGeometry x="160" y="360" width="80" height="40" as="geometry" />
        </mxCell>
        <mxCell id="HmrVni0DYpz4vH6xfYJv-112" value="op&lt;div&gt;3..0&lt;/div&gt;" style="rounded=0;whiteSpace=wrap;html=1;fillColor=#990000;" parent="1" vertex="1">
          <mxGeometry x="280" y="360" width="160" height="40" as="geometry" />
        </mxCell>
        <mxCell id="HmrVni0DYpz4vH6xfYJv-113" value="RI-A" style="text;html=1;align=center;verticalAlign=middle;whiteSpace=wrap;rounded=0;" parent="1" vertex="1">
          <mxGeometry x="160" y="410" width="80" height="40" as="geometry" />
        </mxCell>
        <mxCell id="HmrVni0DYpz4vH6xfYJv-114" value="op&lt;div&gt;3..0&lt;/div&gt;" style="rounded=0;whiteSpace=wrap;html=1;fillColor=#990000;" parent="1" vertex="1">
          <mxGeometry x="280" y="410" width="160" height="40" as="geometry" />
        </mxCell>
        <mxCell id="HmrVni0DYpz4vH6xfYJv-115" value="2RI-A" style="text;html=1;align=center;verticalAlign=middle;whiteSpace=wrap;rounded=0;" parent="1" vertex="1">
          <mxGeometry x="160" y="460" width="80" height="40" as="geometry" />
        </mxCell>
        <mxCell id="HmrVni0DYpz4vH6xfYJv-116" value="op&lt;div&gt;3..0&lt;/div&gt;" style="rounded=0;whiteSpace=wrap;html=1;fillColor=#990000;" parent="1" vertex="1">
          <mxGeometry x="280" y="460" width="160" height="40" as="geometry" />
        </mxCell>
        <mxCell id="HmrVni0DYpz4vH6xfYJv-117" value="2RI-B" style="text;html=1;align=center;verticalAlign=middle;whiteSpace=wrap;rounded=0;" parent="1" vertex="1">
          <mxGeometry x="160" y="520" width="80" height="40" as="geometry" />
        </mxCell>
        <mxCell id="HmrVni0DYpz4vH6xfYJv-118" value="op&lt;div&gt;3..0&lt;/div&gt;" style="rounded=0;whiteSpace=wrap;html=1;fillColor=#990000;" parent="1" vertex="1">
          <mxGeometry x="280" y="520" width="160" height="40" as="geometry" />
        </mxCell>
        <mxCell id="HmrVni0DYpz4vH6xfYJv-119" value="3RI-A" style="text;html=1;align=center;verticalAlign=middle;whiteSpace=wrap;rounded=0;" parent="1" vertex="1">
          <mxGeometry x="160" y="570" width="80" height="40" as="geometry" />
        </mxCell>
        <mxCell id="HmrVni0DYpz4vH6xfYJv-120" value="op&lt;div&gt;3..0&lt;/div&gt;" style="rounded=0;whiteSpace=wrap;html=1;fillColor=#990000;" parent="1" vertex="1">
          <mxGeometry x="280" y="570" width="160" height="40" as="geometry" />
        </mxCell>
        <mxCell id="HmrVni0DYpz4vH6xfYJv-121" value="op&lt;div&gt;3..0&lt;/div&gt;" style="rounded=0;whiteSpace=wrap;html=1;fillColor=#990000;" parent="1" vertex="1">
          <mxGeometry x="280" y="620" width="160" height="40" as="geometry" />
        </mxCell>
        <mxCell id="HmrVni0DYpz4vH6xfYJv-122" value="4R-B" style="text;html=1;align=center;verticalAlign=middle;whiteSpace=wrap;rounded=0;" parent="1" vertex="1">
          <mxGeometry x="160" y="620" width="80" height="40" as="geometry" />
        </mxCell>
        <mxCell id="HmrVni0DYpz4vH6xfYJv-123" value="op&lt;div&gt;3..0&lt;/div&gt;" style="rounded=0;whiteSpace=wrap;html=1;fillColor=#990000;" parent="1" vertex="1">
          <mxGeometry x="280" y="670" width="160" height="40" as="geometry" />
        </mxCell>
        <mxCell id="HmrVni0DYpz4vH6xfYJv-124" value="3RI-B" style="text;html=1;align=center;verticalAlign=middle;whiteSpace=wrap;rounded=0;" parent="1" vertex="1">
          <mxGeometry x="160" y="670" width="80" height="40" as="geometry" />
        </mxCell>
        <mxCell id="HmrVni0DYpz4vH6xfYJv-125" value="op&lt;div&gt;3..0&lt;/div&gt;" style="rounded=0;whiteSpace=wrap;html=1;fillColor=#990000;" parent="1" vertex="1">
          <mxGeometry x="280" y="730" width="160" height="40" as="geometry" />
        </mxCell>
        <mxCell id="HmrVni0DYpz4vH6xfYJv-126" value="2R-B" style="text;html=1;align=center;verticalAlign=middle;whiteSpace=wrap;rounded=0;" parent="1" vertex="1">
          <mxGeometry x="160" y="730" width="80" height="40" as="geometry" />
        </mxCell>
        <mxCell id="HmrVni0DYpz4vH6xfYJv-127" value="op&lt;div&gt;3..0&lt;/div&gt;" style="rounded=0;whiteSpace=wrap;html=1;fillColor=#990000;" parent="1" vertex="1">
          <mxGeometry x="280" y="780" width="160" height="40" as="geometry" />
        </mxCell>
        <mxCell id="HmrVni0DYpz4vH6xfYJv-128" value="I-B" style="text;html=1;align=center;verticalAlign=middle;whiteSpace=wrap;rounded=0;" parent="1" vertex="1">
          <mxGeometry x="160" y="780" width="80" height="40" as="geometry" />
        </mxCell>
        <mxCell id="HmrVni0DYpz4vH6xfYJv-129" value="op&lt;div&gt;3..0&lt;/div&gt;" style="rounded=0;whiteSpace=wrap;html=1;fillColor=#990000;" parent="1" vertex="1">
          <mxGeometry x="280" y="830" width="160" height="40" as="geometry" />
        </mxCell>
        <mxCell id="HmrVni0DYpz4vH6xfYJv-130" value="op&lt;div&gt;3..0&lt;/div&gt;" style="rounded=0;whiteSpace=wrap;html=1;fillColor=#990000;" parent="1" vertex="1">
          <mxGeometry x="280" y="880" width="160" height="40" as="geometry" />
        </mxCell>
        <mxCell id="HmrVni0DYpz4vH6xfYJv-131" value="RI-B" style="text;html=1;align=center;verticalAlign=middle;whiteSpace=wrap;rounded=0;" parent="1" vertex="1">
          <mxGeometry x="160" y="830" width="80" height="40" as="geometry" />
        </mxCell>
        <mxCell id="HmrVni0DYpz4vH6xfYJv-132" value="2RI-C" style="text;html=1;align=center;verticalAlign=middle;whiteSpace=wrap;rounded=0;" parent="1" vertex="1">
          <mxGeometry x="160" y="880" width="80" height="40" as="geometry" />
        </mxCell>
        <mxCell id="HmrVni0DYpz4vH6xfYJv-133" value="ra&lt;div&gt;4..0&lt;/div&gt;" style="rounded=0;whiteSpace=wrap;html=1;fillColor=#CC6600;" parent="1" vertex="1">
          <mxGeometry x="440" y="210" width="200" height="40" as="geometry" />
        </mxCell>
        <mxCell id="HmrVni0DYpz4vH6xfYJv-143" value="rb&lt;div&gt;4..0&lt;/div&gt;" style="rounded=0;whiteSpace=wrap;html=1;fillColor=#CC6600;" parent="1" vertex="1">
          <mxGeometry x="640" y="210" width="200" height="40" as="geometry" />
        </mxCell>
        <mxCell id="HmrVni0DYpz4vH6xfYJv-153" value="op&lt;div&gt;19..4&lt;/div&gt;" style="rounded=0;whiteSpace=wrap;html=1;fillColor=#990000;" parent="1" vertex="1">
          <mxGeometry x="840" y="210" width="640" height="40" as="geometry" />
        </mxCell>
        <mxCell id="HmrVni0DYpz4vH6xfYJv-154" value="md&lt;div&gt;1..0&lt;/div&gt;" style="rounded=0;whiteSpace=wrap;html=1;fillColor=#999900;" parent="1" vertex="1">
          <mxGeometry x="1480" y="210" width="80" height="40" as="geometry" />
        </mxCell>
        <mxCell id="HmrVni0DYpz4vH6xfYJv-155" value="ra&lt;div&gt;4..0&lt;/div&gt;" style="rounded=0;whiteSpace=wrap;html=1;fillColor=#CC6600;" parent="1" vertex="1">
          <mxGeometry x="440" y="260" width="200" height="40" as="geometry" />
        </mxCell>
        <mxCell id="HmrVni0DYpz4vH6xfYJv-156" value="rb&lt;div&gt;4..0&lt;/div&gt;" style="rounded=0;whiteSpace=wrap;html=1;fillColor=#CC6600;" parent="1" vertex="1">
          <mxGeometry x="640" y="260" width="200" height="40" as="geometry" />
        </mxCell>
        <mxCell id="HmrVni0DYpz4vH6xfYJv-157" value="rc&lt;div&gt;4..0&lt;/div&gt;" style="rounded=0;whiteSpace=wrap;html=1;fillColor=#CC6600;" parent="1" vertex="1">
          <mxGeometry x="1280" y="260" width="200" height="40" as="geometry" />
        </mxCell>
        <mxCell id="HmrVni0DYpz4vH6xfYJv-158" value="op&lt;div&gt;14..4&lt;/div&gt;" style="rounded=0;whiteSpace=wrap;html=1;fillColor=#990000;" parent="1" vertex="1">
          <mxGeometry x="840" y="260" width="440" height="40" as="geometry" />
        </mxCell>
        <mxCell id="HmrVni0DYpz4vH6xfYJv-159" value="md&lt;div&gt;1..0&lt;/div&gt;" style="rounded=0;whiteSpace=wrap;html=1;fillColor=#999900;" parent="1" vertex="1">
          <mxGeometry x="1480" y="260" width="80" height="40" as="geometry" />
        </mxCell>
        <mxCell id="HmrVni0DYpz4vH6xfYJv-160" value="ra&lt;div&gt;4..0&lt;/div&gt;" style="rounded=0;whiteSpace=wrap;html=1;fillColor=#CC6600;" parent="1" vertex="1">
          <mxGeometry x="440" y="310" width="200" height="40" as="geometry" />
        </mxCell>
        <mxCell id="HmrVni0DYpz4vH6xfYJv-161" value="rb&lt;div&gt;4..0&lt;/div&gt;" style="rounded=0;whiteSpace=wrap;html=1;fillColor=#CC6600;" parent="1" vertex="1">
          <mxGeometry x="640" y="310" width="200" height="40" as="geometry" />
        </mxCell>
        <mxCell id="HmrVni0DYpz4vH6xfYJv-162" value="rc&lt;div&gt;4..0&lt;/div&gt;" style="rounded=0;whiteSpace=wrap;html=1;fillColor=#CC6600;" parent="1" vertex="1">
          <mxGeometry x="1280" y="310" width="200" height="40" as="geometry" />
        </mxCell>
        <mxCell id="HmrVni0DYpz4vH6xfYJv-163" value="rd&lt;div&gt;4..0&lt;/div&gt;" style="rounded=0;whiteSpace=wrap;html=1;fillColor=#CC6600;" parent="1" vertex="1">
          <mxGeometry x="1080" y="310" width="200" height="40" as="geometry" />
        </mxCell>
        <mxCell id="HmrVni0DYpz4vH6xfYJv-164" value="op&lt;div&gt;9..4&lt;/div&gt;" style="rounded=0;whiteSpace=wrap;html=1;fillColor=#990000;" parent="1" vertex="1">
          <mxGeometry x="840" y="310" width="240" height="40" as="geometry" />
        </mxCell>
        <mxCell id="HmrVni0DYpz4vH6xfYJv-165" value="md&lt;div&gt;1..0&lt;/div&gt;" style="rounded=0;whiteSpace=wrap;html=1;fillColor=#999900;" parent="1" vertex="1">
          <mxGeometry x="1480" y="310" width="80" height="40" as="geometry" />
        </mxCell>
        <mxCell id="HmrVni0DYpz4vH6xfYJv-166" value="im&lt;div&gt;23..19&lt;/div&gt;" style="rounded=0;whiteSpace=wrap;html=1;fillColor=#006600;" parent="1" vertex="1">
          <mxGeometry x="440" y="360" width="200" height="40" as="geometry" />
        </mxCell>
        <mxCell id="HmrVni0DYpz4vH6xfYJv-167" value="im&lt;div&gt;15..11&lt;/div&gt;" style="rounded=0;whiteSpace=wrap;html=1;fillColor=#006600;" parent="1" vertex="1">
          <mxGeometry x="640" y="360" width="200" height="40" as="geometry" />
        </mxCell>
        <mxCell id="HmrVni0DYpz4vH6xfYJv-168" value="im&lt;div&gt;17..16&lt;/div&gt;" style="rounded=0;whiteSpace=wrap;html=1;fillColor=#006600;" parent="1" vertex="1">
          <mxGeometry x="1480" y="360" width="80" height="40" as="geometry" />
        </mxCell>
        <mxCell id="HmrVni0DYpz4vH6xfYJv-169" value="im&lt;div&gt;10..0&lt;/div&gt;" style="rounded=0;whiteSpace=wrap;html=1;fillColor=#006600;" parent="1" vertex="1">
          <mxGeometry x="1040" y="360" width="440" height="40" as="geometry" />
        </mxCell>
        <mxCell id="HmrVni0DYpz4vH6xfYJv-170" value="op&lt;div&gt;7..4&lt;/div&gt;" style="rounded=0;whiteSpace=wrap;html=1;fillColor=#990000;" parent="1" vertex="1">
          <mxGeometry x="840" y="360" width="160" height="40" as="geometry" />
        </mxCell>
        <mxCell id="HmrVni0DYpz4vH6xfYJv-171" value="im&lt;div&gt;18&lt;/div&gt;" style="rounded=0;whiteSpace=wrap;html=1;fillColor=#006600;" parent="1" vertex="1">
          <mxGeometry x="1000" y="360" width="40" height="40" as="geometry" />
        </mxCell>
        <mxCell id="HmrVni0DYpz4vH6xfYJv-172" value="ra&lt;div&gt;4..0&lt;/div&gt;" style="rounded=0;whiteSpace=wrap;html=1;fillColor=#CC6600;" parent="1" vertex="1">
          <mxGeometry x="440" y="410" width="200" height="40" as="geometry" />
        </mxCell>
        <mxCell id="HmrVni0DYpz4vH6xfYJv-173" value="im&lt;div&gt;15..11&lt;/div&gt;" style="rounded=0;whiteSpace=wrap;html=1;fillColor=#006600;" parent="1" vertex="1">
          <mxGeometry x="640" y="410" width="200" height="40" as="geometry" />
        </mxCell>
        <mxCell id="HmrVni0DYpz4vH6xfYJv-174" value="op&lt;div&gt;8..4&lt;/div&gt;" style="rounded=0;whiteSpace=wrap;html=1;fillColor=#990000;" parent="1" vertex="1">
          <mxGeometry x="840" y="410" width="200" height="40" as="geometry" />
        </mxCell>
        <mxCell id="HmrVni0DYpz4vH6xfYJv-175" value="im&lt;div&gt;10..0&lt;/div&gt;" style="rounded=0;whiteSpace=wrap;html=1;fillColor=#006600;" parent="1" vertex="1">
          <mxGeometry x="1040" y="410" width="440" height="40" as="geometry" />
        </mxCell>
        <mxCell id="HmrVni0DYpz4vH6xfYJv-176" value="md&lt;div&gt;1..0&lt;/div&gt;" style="rounded=0;whiteSpace=wrap;html=1;fillColor=#999900;" parent="1" vertex="1">
          <mxGeometry x="1480" y="410" width="80" height="40" as="geometry" />
        </mxCell>
        <mxCell id="HmrVni0DYpz4vH6xfYJv-177" value="ra&lt;div&gt;4..0&lt;/div&gt;" style="rounded=0;whiteSpace=wrap;html=1;fillColor=#CC6600;" parent="1" vertex="1">
          <mxGeometry x="440" y="460" width="200" height="40" as="geometry" />
        </mxCell>
        <mxCell id="HmrVni0DYpz4vH6xfYJv-178" value="rb&lt;div&gt;4..0&lt;/div&gt;" style="rounded=0;whiteSpace=wrap;html=1;fillColor=#CC6600;" parent="1" vertex="1">
          <mxGeometry x="640" y="460" width="200" height="40" as="geometry" />
        </mxCell>
        <mxCell id="HmrVni0DYpz4vH6xfYJv-179" value="im&lt;div&gt;11..0&lt;/div&gt;" style="rounded=0;whiteSpace=wrap;html=1;fillColor=#006600;" parent="1" vertex="1">
          <mxGeometry x="1000" y="460" width="480" height="40" as="geometry" />
        </mxCell>
        <mxCell id="HmrVni0DYpz4vH6xfYJv-180" value="op&lt;div&gt;7..4&lt;/div&gt;" style="rounded=0;whiteSpace=wrap;html=1;fillColor=#990000;" parent="1" vertex="1">
          <mxGeometry x="840" y="460" width="160" height="40" as="geometry" />
        </mxCell>
        <mxCell id="HmrVni0DYpz4vH6xfYJv-181" value="md&lt;div&gt;1..0&lt;/div&gt;" style="rounded=0;whiteSpace=wrap;html=1;fillColor=#999900;" parent="1" vertex="1">
          <mxGeometry x="1480" y="460" width="80" height="40" as="geometry" />
        </mxCell>
        <mxCell id="HmrVni0DYpz4vH6xfYJv-182" value="ra&lt;div&gt;4..0&lt;/div&gt;" style="rounded=0;whiteSpace=wrap;html=1;fillColor=#CC6600;" parent="1" vertex="1">
          <mxGeometry x="440" y="520" width="200" height="40" as="geometry" />
        </mxCell>
        <mxCell id="HmrVni0DYpz4vH6xfYJv-183" value="rb&lt;div&gt;4..0&lt;/div&gt;" style="rounded=0;whiteSpace=wrap;html=1;fillColor=#CC6600;" parent="1" vertex="1">
          <mxGeometry x="640" y="520" width="200" height="40" as="geometry" />
        </mxCell>
        <mxCell id="HmrVni0DYpz4vH6xfYJv-184" value="op&lt;div&gt;14..4&lt;/div&gt;" style="rounded=0;whiteSpace=wrap;html=1;fillColor=#990000;" parent="1" vertex="1">
          <mxGeometry x="840" y="520" width="440" height="40" as="geometry" />
        </mxCell>
        <mxCell id="HmrVni0DYpz4vH6xfYJv-185" value="im&lt;div&gt;18&lt;span style=&quot;background-color: initial;&quot;&gt;..16&lt;/span&gt;&lt;/div&gt;" style="rounded=0;whiteSpace=wrap;html=1;fillColor=#006600;" parent="1" vertex="1">
          <mxGeometry x="1280" y="520" width="200" height="40" as="geometry" />
        </mxCell>
        <mxCell id="HmrVni0DYpz4vH6xfYJv-186" value="md&lt;div&gt;1..0&lt;/div&gt;" style="rounded=0;whiteSpace=wrap;html=1;fillColor=#999900;" parent="1" vertex="1">
          <mxGeometry x="1480" y="520" width="80" height="40" as="geometry" />
        </mxCell>
        <mxCell id="HmrVni0DYpz4vH6xfYJv-187" value="ra&lt;div&gt;4..0&lt;/div&gt;" style="rounded=0;whiteSpace=wrap;html=1;fillColor=#CC6600;" parent="1" vertex="1">
          <mxGeometry x="440" y="570" width="200" height="40" as="geometry" />
        </mxCell>
        <mxCell id="HmrVni0DYpz4vH6xfYJv-188" value="rb&lt;div&gt;4..0&lt;/div&gt;" style="rounded=0;whiteSpace=wrap;html=1;fillColor=#CC6600;" parent="1" vertex="1">
          <mxGeometry x="640" y="570" width="200" height="40" as="geometry" />
        </mxCell>
        <mxCell id="HmrVni0DYpz4vH6xfYJv-189" value="rc&lt;div&gt;4..0&lt;/div&gt;" style="rounded=0;whiteSpace=wrap;html=1;fillColor=#CC6600;" parent="1" vertex="1">
          <mxGeometry x="1280" y="570" width="200" height="40" as="geometry" />
        </mxCell>
        <mxCell id="HmrVni0DYpz4vH6xfYJv-190" value="op&lt;div&gt;14..4&lt;/div&gt;" style="rounded=0;whiteSpace=wrap;html=1;fillColor=#990000;" parent="1" vertex="1">
          <mxGeometry x="840" y="570" width="440" height="40" as="geometry" />
        </mxCell>
        <mxCell id="HmrVni0DYpz4vH6xfYJv-191" value="md&lt;div&gt;1..0&lt;/div&gt;" style="rounded=0;whiteSpace=wrap;html=1;fillColor=#999900;" parent="1" vertex="1">
          <mxGeometry x="1480" y="570" width="80" height="40" as="geometry" />
        </mxCell>
        <mxCell id="HmrVni0DYpz4vH6xfYJv-192" value="ra&lt;div&gt;4..0&lt;/div&gt;" style="rounded=0;whiteSpace=wrap;html=1;fillColor=#CC6600;" parent="1" vertex="1">
          <mxGeometry x="440" y="620" width="200" height="40" as="geometry" />
        </mxCell>
        <mxCell id="HmrVni0DYpz4vH6xfYJv-193" value="rb&lt;div&gt;4..0&lt;/div&gt;" style="rounded=0;whiteSpace=wrap;html=1;fillColor=#CC6600;" parent="1" vertex="1">
          <mxGeometry x="640" y="620" width="200" height="40" as="geometry" />
        </mxCell>
        <mxCell id="HmrVni0DYpz4vH6xfYJv-194" value="rc&lt;div&gt;4..0&lt;/div&gt;" style="rounded=0;whiteSpace=wrap;html=1;fillColor=#CC6600;" parent="1" vertex="1">
          <mxGeometry x="1280" y="620" width="200" height="40" as="geometry" />
        </mxCell>
        <mxCell id="HmrVni0DYpz4vH6xfYJv-195" value="im&lt;div&gt;15..0&lt;/div&gt;" style="rounded=0;whiteSpace=wrap;html=1;fillColor=#006600;" parent="1" vertex="1">
          <mxGeometry x="1560" y="520" width="640" height="40" as="geometry" />
        </mxCell>
        <mxCell id="HmrVni0DYpz4vH6xfYJv-196" value="im&lt;div&gt;15..0&lt;/div&gt;" style="rounded=0;whiteSpace=wrap;html=1;fillColor=#006600;" parent="1" vertex="1">
          <mxGeometry x="1560" y="570" width="640" height="40" as="geometry" />
        </mxCell>
        <mxCell id="HmrVni0DYpz4vH6xfYJv-197" value="rd&lt;div&gt;4..0&lt;/div&gt;" style="rounded=0;whiteSpace=wrap;html=1;fillColor=#CC6600;" parent="1" vertex="1">
          <mxGeometry x="1080" y="620" width="200" height="40" as="geometry" />
        </mxCell>
        <mxCell id="HmrVni0DYpz4vH6xfYJv-198" value="op&lt;div&gt;9..4&lt;/div&gt;" style="rounded=0;whiteSpace=wrap;html=1;fillColor=#990000;" parent="1" vertex="1">
          <mxGeometry x="840" y="620" width="240" height="40" as="geometry" />
        </mxCell>
        <mxCell id="HmrVni0DYpz4vH6xfYJv-199" value="md&lt;div&gt;1..0&lt;/div&gt;" style="rounded=0;whiteSpace=wrap;html=1;fillColor=#999900;" parent="1" vertex="1">
          <mxGeometry x="1480" y="620" width="80" height="40" as="geometry" />
        </mxCell>
        <mxCell id="HmrVni0DYpz4vH6xfYJv-200" value="op&lt;div&gt;19..10&lt;/div&gt;" style="rounded=0;whiteSpace=wrap;html=1;fillColor=#990000;" parent="1" vertex="1">
          <mxGeometry x="1640" y="620" width="400" height="40" as="geometry" />
        </mxCell>
        <mxCell id="HmrVni0DYpz4vH6xfYJv-201" value="vmd&lt;div&gt;5..2&lt;/div&gt;" style="rounded=0;whiteSpace=wrap;html=1;fillColor=#000099;" parent="1" vertex="1">
          <mxGeometry x="2040" y="620" width="160" height="40" as="geometry" />
        </mxCell>
        <mxCell id="HmrVni0DYpz4vH6xfYJv-202" value="im&lt;div&gt;13..0&lt;/div&gt;" style="rounded=0;whiteSpace=wrap;html=1;fillColor=#006600;" parent="1" vertex="1">
          <mxGeometry x="1640" y="670" width="560" height="40" as="geometry" />
        </mxCell>
        <mxCell id="HmrVni0DYpz4vH6xfYJv-203" value="vmd&lt;div&gt;0..1&lt;/div&gt;" style="rounded=0;whiteSpace=wrap;html=1;fillColor=#000099;" parent="1" vertex="1">
          <mxGeometry x="1560" y="670" width="80" height="40" as="geometry" />
        </mxCell>
        <mxCell id="HmrVni0DYpz4vH6xfYJv-204" value="vmd&lt;div&gt;1..0&lt;/div&gt;" style="rounded=0;whiteSpace=wrap;html=1;fillColor=#000099;" parent="1" vertex="1">
          <mxGeometry x="1560" y="620" width="80" height="40" as="geometry" />
        </mxCell>
        <mxCell id="HmrVni0DYpz4vH6xfYJv-205" value="ra&lt;div&gt;4..0&lt;/div&gt;" style="rounded=0;whiteSpace=wrap;html=1;fillColor=#CC6600;" parent="1" vertex="1">
          <mxGeometry x="440" y="670" width="200" height="40" as="geometry" />
        </mxCell>
        <mxCell id="HmrVni0DYpz4vH6xfYJv-206" value="op&lt;div&gt;14..4&lt;/div&gt;" style="rounded=0;whiteSpace=wrap;html=1;fillColor=#990000;" parent="1" vertex="1">
          <mxGeometry x="840" y="670" width="440" height="40" as="geometry" />
        </mxCell>
        <mxCell id="HmrVni0DYpz4vH6xfYJv-207" value="rb&lt;div&gt;4..0&lt;/div&gt;" style="rounded=0;whiteSpace=wrap;html=1;fillColor=#CC6600;" parent="1" vertex="1">
          <mxGeometry x="640" y="670" width="200" height="40" as="geometry" />
        </mxCell>
        <mxCell id="HmrVni0DYpz4vH6xfYJv-208" value="rc&lt;div&gt;4..0&lt;/div&gt;" style="rounded=0;whiteSpace=wrap;html=1;fillColor=#CC6600;" parent="1" vertex="1">
          <mxGeometry x="1280" y="670" width="200" height="40" as="geometry" />
        </mxCell>
        <mxCell id="HmrVni0DYpz4vH6xfYJv-209" value="md&lt;div&gt;1..0&lt;/div&gt;" style="rounded=0;whiteSpace=wrap;html=1;fillColor=#999900;" parent="1" vertex="1">
          <mxGeometry x="1480" y="670" width="80" height="40" as="geometry" />
        </mxCell>
        <mxCell id="HmrVni0DYpz4vH6xfYJv-210" value="ra&lt;div&gt;2..0&lt;/div&gt;" style="rounded=0;whiteSpace=wrap;html=1;fillColor=#CC6600;" parent="1" vertex="1">
          <mxGeometry x="520" y="730" width="120" height="40" as="geometry" />
        </mxCell>
        <mxCell id="HmrVni0DYpz4vH6xfYJv-211" value="rb&lt;div&gt;2..0&lt;/div&gt;" style="rounded=0;whiteSpace=wrap;html=1;fillColor=#CC6600;" parent="1" vertex="1">
          <mxGeometry x="720" y="730" width="120" height="40" as="geometry" />
        </mxCell>
        <mxCell id="HmrVni0DYpz4vH6xfYJv-212" value="op&lt;div&gt;7..6&lt;/div&gt;" style="rounded=0;whiteSpace=wrap;html=1;fillColor=#990000;" parent="1" vertex="1">
          <mxGeometry x="840" y="730" width="80" height="40" as="geometry" />
        </mxCell>
        <mxCell id="HmrVni0DYpz4vH6xfYJv-213" value="md&lt;div&gt;1..0&lt;/div&gt;" style="rounded=0;whiteSpace=wrap;html=1;fillColor=#999900;" parent="1" vertex="1">
          <mxGeometry x="440" y="730" width="80" height="40" as="geometry" />
        </mxCell>
        <mxCell id="HmrVni0DYpz4vH6xfYJv-214" value="im&lt;div&gt;9..7&lt;/div&gt;" style="rounded=0;whiteSpace=wrap;html=1;fillColor=#006600;" parent="1" vertex="1">
          <mxGeometry x="520" y="780" width="120" height="40" as="geometry" />
        </mxCell>
        <mxCell id="HmrVni0DYpz4vH6xfYJv-215" value="im&lt;div&gt;1..0&lt;/div&gt;" style="rounded=0;whiteSpace=wrap;html=1;fillColor=#006600;" parent="1" vertex="1">
          <mxGeometry x="840" y="780" width="80" height="40" as="geometry" />
        </mxCell>
        <mxCell id="HmrVni0DYpz4vH6xfYJv-216" value="op&lt;div&gt;5..4&lt;/div&gt;" style="rounded=0;whiteSpace=wrap;html=1;fillColor=#990000;" parent="1" vertex="1">
          <mxGeometry x="640" y="780" width="80" height="40" as="geometry" />
        </mxCell>
        <mxCell id="HmrVni0DYpz4vH6xfYJv-217" value="im&lt;div&gt;6..4&lt;/div&gt;" style="rounded=0;whiteSpace=wrap;html=1;fillColor=#006600;" parent="1" vertex="1">
          <mxGeometry x="720" y="780" width="120" height="40" as="geometry" />
        </mxCell>
        <mxCell id="HmrVni0DYpz4vH6xfYJv-218" value="ra&lt;div&gt;2..0&lt;/div&gt;" style="rounded=0;whiteSpace=wrap;html=1;fillColor=#CC6600;" parent="1" vertex="1">
          <mxGeometry x="520" y="830" width="120" height="40" as="geometry" />
        </mxCell>
        <mxCell id="HmrVni0DYpz4vH6xfYJv-219" value="op&lt;div&gt;4&lt;/div&gt;" style="rounded=0;whiteSpace=wrap;html=1;fillColor=#990000;" parent="1" vertex="1">
          <mxGeometry x="640" y="830" width="40" height="40" as="geometry" />
        </mxCell>
        <mxCell id="HmrVni0DYpz4vH6xfYJv-220" value="im&lt;div&gt;3..2&lt;/div&gt;" style="rounded=0;whiteSpace=wrap;html=1;fillColor=#006600;" parent="1" vertex="1">
          <mxGeometry x="440" y="830" width="80" height="40" as="geometry" />
        </mxCell>
        <mxCell id="HmrVni0DYpz4vH6xfYJv-221" value="im&lt;div&gt;1..0&lt;/div&gt;" style="rounded=0;whiteSpace=wrap;html=1;fillColor=#006600;" parent="1" vertex="1">
          <mxGeometry x="840" y="830" width="80" height="40" as="geometry" />
        </mxCell>
        <mxCell id="HmrVni0DYpz4vH6xfYJv-222" value="ra&lt;div&gt;2..0&lt;/div&gt;" style="rounded=0;whiteSpace=wrap;html=1;fillColor=#CC6600;" parent="1" vertex="1">
          <mxGeometry x="520" y="880" width="120" height="40" as="geometry" />
        </mxCell>
        <mxCell id="HmrVni0DYpz4vH6xfYJv-223" value="rb&lt;div&gt;2..0&lt;/div&gt;" style="rounded=0;whiteSpace=wrap;html=1;fillColor=#CC6600;" parent="1" vertex="1">
          <mxGeometry x="720" y="880" width="120" height="40" as="geometry" />
        </mxCell>
        <mxCell id="HmrVni0DYpz4vH6xfYJv-224" value="im&lt;div&gt;3..2&lt;/div&gt;" style="rounded=0;whiteSpace=wrap;html=1;fillColor=#006600;" parent="1" vertex="1">
          <mxGeometry x="440" y="880" width="80" height="40" as="geometry" />
        </mxCell>
        <mxCell id="HmrVni0DYpz4vH6xfYJv-225" value="im&lt;div&gt;1..0&lt;/div&gt;" style="rounded=0;whiteSpace=wrap;html=1;fillColor=#006600;" parent="1" vertex="1">
          <mxGeometry x="840" y="880" width="80" height="40" as="geometry" />
        </mxCell>
        <mxCell id="mF_VjLjl1MXUMFPptGJr-1" value="im&lt;div&gt;6..4&lt;/div&gt;" style="rounded=0;whiteSpace=wrap;html=1;fillColor=#006600;" parent="1" vertex="1">
          <mxGeometry x="720" y="830" width="120" height="40" as="geometry" />
        </mxCell>
        <mxCell id="mF_VjLjl1MXUMFPptGJr-2" value="im&lt;div&gt;7&lt;/div&gt;" style="rounded=0;whiteSpace=wrap;html=1;fillColor=#006600;" parent="1" vertex="1">
          <mxGeometry x="680" y="830" width="40" height="40" as="geometry" />
        </mxCell>
        <mxCell id="mF_VjLjl1MXUMFPptGJr-3" value="im&lt;div&gt;5..4&lt;/div&gt;" style="rounded=0;whiteSpace=wrap;html=1;fillColor=#006600;" parent="1" vertex="1">
          <mxGeometry x="640" y="880" width="80" height="40" as="geometry" />
        </mxCell>
        <mxCell id="mF_VjLjl1MXUMFPptGJr-4" value="im&lt;div&gt;3..2&lt;/div&gt;" style="rounded=0;whiteSpace=wrap;html=1;fillColor=#006600;" parent="1" vertex="1">
          <mxGeometry x="440" y="780" width="80" height="40" as="geometry" />
        </mxCell>
        <mxCell id="mF_VjLjl1MXUMFPptGJr-5" value="op&lt;div&gt;5..4&lt;/div&gt;" style="rounded=0;whiteSpace=wrap;html=1;fillColor=#990000;" parent="1" vertex="1">
          <mxGeometry x="640" y="730" width="80" height="40" as="geometry" />
        </mxCell>
      </root>
    </mxGraphModel>
  </diagram>
</mxfile>
